<svg width="28" height="28" viewBox="0 0 28 28" fill="none" xmlns="http://www.w3.org/2000/svg">
<path d="M22.9331 5.10303L15.0669 10.9453L16.5215 7.49846L22.9331 5.10303Z" fill="#E2761B"/>
<path fill-rule="evenodd" clip-rule="evenodd" d="M23.0694 5.02847C23.1064 5.09651 23.0877 5.18141 23.0255 5.22759L15.1593 11.0699C15.103 11.1117 15.0257 11.1107 14.9706 11.0674C14.9155 11.0241 14.8961 10.9492 14.9234 10.8846L16.378 7.43774C16.3947 7.39834 16.4268 7.36752 16.4669 7.35255L22.8784 4.95712C22.9509 4.93002 23.0324 4.96044 23.0694 5.02847ZM16.6385 7.62039L15.4315 10.4804L21.9584 5.63279L16.6385 7.62039Z" fill="#E2761B"/>
<path d="M4.77393 5.10303L12.5769 11.0007L11.1934 7.49846L4.77393 5.10303Z" fill="#E4761B"/>
<path fill-rule="evenodd" clip-rule="evenodd" d="M4.63713 5.02793C4.67428 4.96027 4.75545 4.93011 4.82777 4.9571L11.2472 7.35253C11.2885 7.36793 11.3213 7.40011 11.3375 7.44107L12.7209 10.9433C12.7466 11.0081 12.7259 11.082 12.6704 11.1242C12.6149 11.1664 12.5382 11.1665 12.4826 11.1245L4.67966 5.2268C4.61808 5.18026 4.59997 5.09559 4.63713 5.02793ZM5.71637 5.62058L12.2283 10.5424L11.0737 7.61967L5.71637 5.62058Z" fill="#E4761B"/>
<path d="M20.1028 18.645L18.0078 21.8547L22.4904 23.088L23.779 18.7162L20.1028 18.645Z" fill="#E4761B"/>
<path fill-rule="evenodd" clip-rule="evenodd" d="M19.9723 18.5602C20.0016 18.5154 20.052 18.4887 20.1056 18.4898L23.7817 18.5609C23.8302 18.5619 23.8754 18.5854 23.9041 18.6245C23.9328 18.6636 23.9415 18.7138 23.9278 18.7603L22.6392 23.1322C22.6152 23.2135 22.5306 23.2606 22.4488 23.2381L17.9663 22.0049C17.9184 21.9917 17.8797 21.9564 17.8621 21.91C17.8445 21.8636 17.8502 21.8115 17.8773 21.77L19.9723 18.5602ZM20.1857 18.8023L18.2542 21.7615L22.3841 22.8978L23.5719 18.8679L20.1857 18.8023Z" fill="#E4761B"/>
<path d="M3.94336 18.7162L5.22408 23.088L9.70662 21.8547L7.61161 18.645L3.94336 18.7162Z" fill="#E4761B"/>
<path fill-rule="evenodd" clip-rule="evenodd" d="M7.60855 18.4898C7.66214 18.4887 7.71248 18.5154 7.74177 18.5602L9.83678 21.77C9.86392 21.8115 9.86957 21.8636 9.85198 21.91C9.8344 21.9564 9.7957 21.9917 9.74783 22.0049L5.26529 23.2381C5.18346 23.2607 5.0987 23.2134 5.07484 23.1319L3.79411 18.7601C3.7805 18.7136 3.78932 18.6634 3.81799 18.6244C3.84665 18.5853 3.89188 18.5619 3.94031 18.5609L7.60855 18.4898ZM4.14972 18.8679L5.33026 22.8978L9.45995 21.7615L7.52846 18.8023L4.14972 18.8679Z" fill="#E4761B"/>
<path d="M9.45369 13.2222L8.20459 15.1117L12.6555 15.3093L12.4974 10.5264L9.45369 13.2222Z" fill="#E4761B"/>
<path fill-rule="evenodd" clip-rule="evenodd" d="M12.5591 10.3833C12.6144 10.4071 12.651 10.4608 12.653 10.521L12.8111 15.3039C12.8125 15.3472 12.7958 15.3892 12.765 15.4196C12.7342 15.4501 12.6921 15.4663 12.6488 15.4644L8.1979 15.2667C8.14196 15.2643 8.09167 15.2319 8.06626 15.182C8.04084 15.1321 8.04422 15.0724 8.0751 15.0257L9.3242 13.1362C9.33169 13.1249 9.34064 13.1146 9.35081 13.1056L12.3945 10.4097C12.4396 10.3698 12.5037 10.3595 12.5591 10.3833ZM9.57231 13.3248L8.48581 14.9683L12.4948 15.1463L12.3531 10.8618L9.57231 13.3248Z" fill="#E4761B"/>
<path d="M18.2526 13.2219L15.1694 10.4708L15.0667 15.309L19.5097 15.1114L18.2526 13.2219Z" fill="#E4761B"/>
<path fill-rule="evenodd" clip-rule="evenodd" d="M15.1073 10.3283C15.163 10.3041 15.2276 10.3144 15.2729 10.3548L18.3561 13.106C18.366 13.1148 18.3747 13.1249 18.3821 13.1359L19.6391 15.0254C19.6701 15.0721 19.6736 15.1319 19.6483 15.1819C19.6229 15.2319 19.5725 15.2643 19.5165 15.2668L15.0735 15.4645C15.0306 15.4664 14.9887 15.4504 14.958 15.4204C14.9272 15.3903 14.9103 15.3488 14.9112 15.3058L15.0139 10.4675C15.0152 10.4069 15.0517 10.3525 15.1073 10.3283ZM15.3177 10.8115L15.2256 15.1464L19.2277 14.9684L18.1342 13.3248L15.3177 10.8115Z" fill="#E4761B"/>
<path d="M9.70654 21.8549L12.3787 20.5505L10.0702 18.748L9.70654 21.8549Z" fill="#E4761B"/>
<path fill-rule="evenodd" clip-rule="evenodd" d="M10.0102 18.6047C10.0621 18.583 10.1216 18.591 10.1659 18.6256L12.4743 20.4281C12.5166 20.4611 12.5389 20.5135 12.5333 20.5669C12.5277 20.6202 12.495 20.6669 12.4468 20.6904L9.77471 21.9948C9.72362 22.0198 9.66299 22.0148 9.6166 21.9819C9.57021 21.9491 9.54547 21.8935 9.55208 21.837L9.91574 18.7301C9.92228 18.6743 9.9584 18.6263 10.0102 18.6047ZM10.1924 19.0409L9.89401 21.5905L12.0868 20.5201L10.1924 19.0409Z" fill="#E4761B"/>
<path d="M15.3279 20.5505L18.0079 21.8549L17.6364 18.748L15.3279 20.5505Z" fill="#E4761B"/>
<path fill-rule="evenodd" clip-rule="evenodd" d="M17.6956 18.6046C17.7474 18.6262 17.7835 18.674 17.7902 18.7297L18.1618 21.8366C18.1685 21.8931 18.1439 21.9488 18.0975 21.9818C18.0512 22.0148 17.9905 22.0198 17.9393 21.9949L15.2593 20.6905C15.2111 20.667 15.1784 20.6203 15.1727 20.567C15.1671 20.5136 15.1894 20.4611 15.2317 20.4281L17.5401 18.6256C17.5844 18.5911 17.6438 18.5831 17.6956 18.6046ZM15.6194 20.5199L17.8192 21.5906L17.5142 19.0404L15.6194 20.5199Z" fill="#E4761B"/>
<path d="M18.0077 21.8553L15.3276 20.5508L15.5411 22.298L15.5174 23.0332L18.0077 21.8553Z" fill="#D7C1B3"/>
<path fill-rule="evenodd" clip-rule="evenodd" d="M15.2371 20.4241C15.2834 20.391 15.3442 20.3859 15.3954 20.4108L18.0754 21.7153C18.1292 21.7414 18.1632 21.7961 18.1629 21.8559C18.1625 21.9157 18.1279 21.97 18.0739 21.9956L15.5836 23.1736C15.5346 23.1967 15.4771 23.1927 15.4318 23.163C15.3865 23.1333 15.3599 23.0821 15.3617 23.028L15.385 22.3047L15.173 20.5695C15.1661 20.5129 15.1907 20.4571 15.2371 20.4241ZM15.5164 20.8155L15.6951 22.2789C15.6961 22.2868 15.6965 22.2948 15.6962 22.3028L15.6807 22.7836L17.648 21.8531L15.5164 20.8155Z" fill="#D7C1B3"/>
<path d="M9.70654 21.8553L12.1968 23.0332L12.181 22.298L12.3787 20.5508L9.70654 21.8553Z" fill="#D7C1B3"/>
<path fill-rule="evenodd" clip-rule="evenodd" d="M12.4683 20.4235C12.5147 20.4563 12.5395 20.5116 12.5331 20.568L12.3367 22.3048L12.3522 23.0296C12.3534 23.0835 12.3266 23.1341 12.2814 23.1634C12.2362 23.1927 12.179 23.1965 12.1303 23.1735L9.64002 21.9956C9.58599 21.97 9.5514 21.9157 9.55103 21.856C9.55066 21.7962 9.58459 21.7415 9.6383 21.7153L12.3104 20.4108C12.3614 20.3859 12.4219 20.3908 12.4683 20.4235ZM10.0654 21.8528L12.036 22.7849L12.0255 22.3011C12.0254 22.2941 12.0257 22.2872 12.0265 22.2802L12.1923 20.8145L10.0654 21.8528Z" fill="#D7C1B3"/>
<path d="M12.2362 17.5938L10.0068 16.9376L11.5801 16.2182L12.2362 17.5938Z" fill="#233447"/>
<path fill-rule="evenodd" clip-rule="evenodd" d="M11.5156 16.0771C11.5928 16.0418 11.6841 16.0749 11.7206 16.1516L12.3768 17.5271C12.4032 17.5825 12.3946 17.6483 12.3548 17.695C12.315 17.7417 12.2514 17.7606 12.1926 17.7432L9.96314 17.0871C9.90091 17.0688 9.85658 17.0137 9.85196 16.949C9.84734 16.8843 9.88338 16.8235 9.94239 16.7965L11.5156 16.0771ZM10.4501 16.9063L11.9461 17.3466L11.5058 16.4235L10.4501 16.9063Z" fill="#233447"/>
<path d="M15.47 17.5938L16.1261 16.2182L17.7073 16.9376L15.47 17.5938Z" fill="#233447"/>
<path fill-rule="evenodd" clip-rule="evenodd" d="M15.9858 16.1516C16.0223 16.075 16.1133 16.0419 16.1905 16.077L17.7716 16.7964C17.8308 16.8233 17.8669 16.8841 17.8623 16.9489C17.8577 17.0137 17.8133 17.0688 17.751 17.0871L15.5137 17.7433C15.4548 17.7605 15.3913 17.7416 15.3516 17.6949C15.3118 17.6482 15.3032 17.5825 15.3296 17.5271L15.9858 16.1516ZM16.2007 16.4233L15.7601 17.347L17.2624 16.9063L16.2007 16.4233Z" fill="#233447"/>
<path d="M9.70634 21.8552L10.0858 18.6454L7.61133 18.7166L9.70634 21.8552Z" fill="#CD6116"/>
<path fill-rule="evenodd" clip-rule="evenodd" d="M10.2007 18.5402C10.2312 18.5736 10.2457 18.6185 10.2404 18.6634L9.86095 21.8731C9.8533 21.9378 9.80615 21.9909 9.74282 22.0061C9.67948 22.0213 9.61339 21.9954 9.57723 21.9412L7.48222 18.8026C7.45082 18.7556 7.44744 18.6952 7.47339 18.645C7.49934 18.5947 7.55053 18.5625 7.60707 18.5609L10.0816 18.4897C10.1267 18.4885 10.1702 18.5069 10.2007 18.5402ZM7.89682 18.8637L9.60167 21.4177L9.91047 18.8058L7.89682 18.8637Z" fill="#CD6116"/>
<path d="M17.6282 18.6454L18.0076 21.8552L20.1027 18.7166L17.6282 18.6454Z" fill="#CD6116"/>
<path fill-rule="evenodd" clip-rule="evenodd" d="M17.5134 18.5402C17.5439 18.5069 17.5874 18.4885 17.6326 18.4897L20.1071 18.5609C20.1636 18.5625 20.2148 18.5947 20.2408 18.645C20.2667 18.6952 20.2633 18.7556 20.2319 18.8026L18.1369 21.9412C18.1008 21.9954 18.0347 22.0213 17.9713 22.0061C17.908 21.9909 17.8609 21.9378 17.8532 21.8731L17.4737 18.6634C17.4684 18.6185 17.4829 18.5736 17.5134 18.5402ZM17.8037 18.8058L18.1125 21.4177L19.8173 18.8637L17.8037 18.8058Z" fill="#CD6116"/>
<path d="M19.5099 15.1118L15.0669 15.3094L15.478 17.5942L16.1342 16.2186L17.7153 16.938L19.5099 15.1118Z" fill="#CD6116"/>
<path fill-rule="evenodd" clip-rule="evenodd" d="M19.6516 15.0482C19.6776 15.1066 19.6653 15.1749 19.6205 15.2205L17.8259 17.0467C17.7801 17.0933 17.7101 17.1063 17.6506 17.0792L16.2085 16.4231L15.618 17.6608C15.589 17.7218 15.5239 17.757 15.457 17.748C15.3901 17.739 15.3366 17.6879 15.3247 17.6214L14.9136 15.3367C14.9056 15.2925 14.9172 15.2471 14.9451 15.2121C14.9731 15.1771 15.0149 15.1558 15.0597 15.1538L19.5027 14.9562C19.5665 14.9533 19.6256 14.9898 19.6516 15.0482ZM15.2511 15.4566L15.5452 17.0912L15.9936 16.1514C16.03 16.0749 16.1211 16.0417 16.1983 16.0768L17.6804 16.7511L19.1217 15.2844L15.2511 15.4566Z" fill="#CD6116"/>
<path d="M10.0071 16.938L11.5882 16.2186L12.2365 17.5942L12.6555 15.3094L8.20459 15.1118L10.0071 16.938Z" fill="#CD6116"/>
<path fill-rule="evenodd" clip-rule="evenodd" d="M8.06272 15.0484C8.08869 14.9899 8.1478 14.9533 8.2117 14.9562L12.6626 15.1538C12.7075 15.1558 12.7493 15.1771 12.7773 15.2123C12.8053 15.2474 12.8167 15.293 12.8086 15.3372L12.3896 17.6219C12.3775 17.6884 12.3238 17.7394 12.2568 17.7481C12.1898 17.7568 12.1249 17.7213 12.0961 17.6602L11.5132 16.4234L10.0717 17.0792C10.0123 17.1062 9.94245 17.0933 9.89664 17.0469L8.09414 15.2207C8.04921 15.1752 8.03675 15.1068 8.06272 15.0484ZM8.59392 15.2844L10.0417 16.7513L11.524 16.0768C11.6015 16.0416 11.6928 16.0751 11.7291 16.152L12.1711 17.0899L12.4706 15.4566L8.59392 15.2844Z" fill="#CD6116"/>
<path d="M8.20459 15.1117L10.0703 18.7484L10.0071 16.9379L8.20459 15.1117Z" fill="#E4751F"/>
<path fill-rule="evenodd" clip-rule="evenodd" d="M8.11366 14.9855C8.17584 14.9405 8.26155 14.9476 8.31547 15.0022L10.118 16.8284C10.1454 16.8562 10.1613 16.8933 10.1627 16.9322L10.2259 18.7426C10.2285 18.8154 10.1802 18.8802 10.1097 18.8985C10.0392 18.9169 9.96546 18.8838 9.93222 18.819L8.06647 15.1824C8.03144 15.1141 8.05148 15.0305 8.11366 14.9855ZM8.80518 15.941L9.89085 18.0572L9.85404 17.0037L8.80518 15.941Z" fill="#E4751F"/>
<path d="M17.7153 16.9379L17.6362 18.7484L19.5099 15.1117L17.7153 16.9379Z" fill="#E4751F"/>
<path fill-rule="evenodd" clip-rule="evenodd" d="M19.6007 14.9855C19.663 15.0305 19.683 15.1144 19.6478 15.1827L17.7742 18.8193C17.7407 18.8842 17.6666 18.9171 17.596 18.8984C17.5254 18.8796 17.4774 18.8143 17.4806 18.7413L17.5597 16.9309C17.5614 16.8925 17.5772 16.8561 17.6041 16.8287L19.3987 15.0025C19.4526 14.9477 19.5384 14.9404 19.6007 14.9855ZM17.8677 17.0041L17.8222 18.0472L18.9017 15.9519L17.8677 17.0041Z" fill="#E4751F"/>
<path d="M12.6556 15.3091L12.2366 17.5938L12.7583 20.2896L12.8769 16.74L12.6556 15.3091Z" fill="#E4751F"/>
<path fill-rule="evenodd" clip-rule="evenodd" d="M12.6577 15.1537C12.7336 15.1547 12.7976 15.2104 12.8092 15.2854L13.0305 16.7163C13.032 16.7259 13.0326 16.7356 13.0323 16.7453L12.9137 20.2949C12.9111 20.374 12.8494 20.4385 12.7706 20.4447C12.6917 20.451 12.6207 20.397 12.6057 20.3193L12.0839 17.6234C12.0802 17.6044 12.0801 17.5849 12.0836 17.5658L12.5026 15.2811C12.5163 15.2065 12.5818 15.1526 12.6577 15.1537ZM12.3947 17.5931L12.649 18.9065L12.721 16.7494L12.6425 16.242L12.3947 17.5931Z" fill="#E4751F"/>
<path d="M15.0667 15.3091L14.8533 16.7321L14.9481 20.2896L15.4778 17.5938L15.0667 15.3091Z" fill="#E4751F"/>
<path fill-rule="evenodd" clip-rule="evenodd" d="M15.0644 15.1537C15.1405 15.1526 15.2062 15.2067 15.2197 15.2816L15.6308 17.5663C15.6342 17.5854 15.6341 17.6049 15.6303 17.6239L15.1007 20.3197C15.0854 20.3975 15.0141 20.4513 14.9351 20.4447C14.8561 20.438 14.7948 20.3731 14.7927 20.2939L14.6978 16.7363C14.6976 16.7272 14.6981 16.7181 14.6995 16.7091L14.9129 15.2861C14.9242 15.2108 14.9883 15.1548 15.0644 15.1537ZM15.0806 16.2645L15.009 16.7417L15.0661 18.8826L15.3196 17.5926L15.0806 16.2645Z" fill="#E4751F"/>
<path d="M15.4777 17.5938L14.948 20.2896L15.3275 20.5505L17.6359 18.748L17.715 16.9376L15.4777 17.5938Z" fill="#F6851B"/>
<path fill-rule="evenodd" clip-rule="evenodd" d="M17.8111 16.8153C17.8506 16.8463 17.8727 16.8944 17.8705 16.9445L17.7915 18.7549C17.7895 18.8004 17.7677 18.8427 17.7318 18.8707L15.4234 20.6732C15.3699 20.7149 15.2955 20.7172 15.2396 20.6787L14.8601 20.4178C14.809 20.3827 14.7837 20.3206 14.7956 20.2597L15.3253 17.5639C15.3365 17.507 15.3785 17.461 15.4341 17.4447L17.6714 16.7885C17.7196 16.7744 17.7716 16.7844 17.8111 16.8153ZM15.6122 17.7165L15.1205 20.2195L15.3218 20.3579L17.4839 18.6697L17.5504 17.1481L15.6122 17.7165Z" fill="#F6851B"/>
<path d="M10.0068 16.9376L10.0701 18.748L12.3785 20.5505L12.758 20.2896L12.2362 17.5938L10.0068 16.9376Z" fill="#F6851B"/>
<path fill-rule="evenodd" clip-rule="evenodd" d="M9.91175 16.8149C9.95122 16.7842 10.003 16.7744 10.0509 16.7886L12.2804 17.4447C12.3361 17.4611 12.3781 17.5073 12.3891 17.5643L12.9109 20.2602C12.9226 20.3209 12.8973 20.3828 12.8463 20.4178L12.4668 20.6787C12.4109 20.7172 12.3365 20.7149 12.2831 20.6732L9.9746 18.8707C9.93836 18.8424 9.91651 18.7995 9.9149 18.7535L9.85166 16.9431C9.84991 16.8932 9.87227 16.8455 9.91175 16.8149ZM10.17 17.1477L10.2231 18.6702L12.3846 20.3579L12.5862 20.2193L12.1018 17.7163L10.17 17.1477Z" fill="#F6851B"/>
<path d="M15.5172 23.0329L15.541 22.2977L15.3433 22.1238H12.3629L12.181 22.2977L12.1968 23.0329L9.70654 21.855L10.5762 22.5665L12.3391 23.7919H15.367L17.1379 22.5665L18.0075 21.855L15.5172 23.0329Z" fill="#C0AD9E"/>
<path fill-rule="evenodd" clip-rule="evenodd" d="M9.5751 21.7717C9.61707 21.7053 9.70198 21.6807 9.77299 21.7143L12.036 22.7847L12.0256 22.3009C12.0246 22.2573 12.042 22.2153 12.0735 22.1852L12.2554 22.0112C12.2843 21.9836 12.3228 21.9681 12.3628 21.9681H15.3433C15.3811 21.9681 15.4176 21.9819 15.446 22.0069L15.6436 22.1808C15.6785 22.2115 15.6978 22.2561 15.6963 22.3025L15.6808 22.7834L17.941 21.7143C18.012 21.6807 18.0969 21.7053 18.1389 21.7717C18.1809 21.8381 18.1667 21.9254 18.1059 21.9751L17.2363 22.6867C17.2331 22.6893 17.2298 22.6918 17.2263 22.6942L15.4555 23.9196C15.4295 23.9376 15.3986 23.9472 15.367 23.9472H12.3391C12.3074 23.9472 12.2764 23.9375 12.2504 23.9194L10.4874 22.694C10.4841 22.6917 10.4808 22.6892 10.4777 22.6867L9.60806 21.9751C9.54726 21.9254 9.53312 21.8381 9.5751 21.7717ZM10.8516 22.5685L12.3878 23.6362H15.3184L16.8597 22.5697L15.5837 23.1733C15.5347 23.1965 15.4772 23.1925 15.4319 23.1628C15.3866 23.133 15.3601 23.0819 15.3618 23.0277L15.3832 22.3658L15.2846 22.2791H12.4252L12.3379 22.3626L12.3522 23.0294C12.3534 23.0833 12.3266 23.1339 12.2814 23.1632C12.2362 23.1925 12.179 23.1963 12.1303 23.1733L10.8516 22.5685Z" fill="#C0AD9E"/>
<path d="M15.3276 20.5504L14.9482 20.2896H12.7583L12.3788 20.5504L12.1812 22.2976L12.363 22.1237H15.3434L15.5411 22.2976L15.3276 20.5504Z" fill="#161616"/>
<path fill-rule="evenodd" clip-rule="evenodd" d="M12.6699 20.1616C12.6958 20.1438 12.7265 20.1343 12.758 20.1343H14.9479C14.9793 20.1343 15.01 20.1438 15.036 20.1616L15.4154 20.4225C15.4522 20.4478 15.4763 20.4876 15.4817 20.5318L15.6951 22.2789C15.703 22.343 15.6704 22.4052 15.6133 22.4353C15.5563 22.4654 15.4865 22.4571 15.4381 22.4145L15.2845 22.2794H12.4251L12.2883 22.4102C12.241 22.4554 12.1705 22.4662 12.1118 22.4371C12.0532 22.408 12.019 22.3454 12.0264 22.2803L12.224 20.5332C12.2291 20.4884 12.2533 20.448 12.2904 20.4225L12.6699 20.1616ZM12.8063 20.4452L12.525 20.6386L12.3746 21.9684H15.3432C15.3434 21.9684 15.3437 21.9684 15.3439 21.9684L15.1815 20.6391L14.8996 20.4452H12.8063Z" fill="#161616"/>
<path d="M23.265 11.3248L23.9369 8.09929L22.9329 5.10303L15.3276 10.7477L18.2527 13.2222L22.3874 14.4318L23.3045 13.3645L22.9092 13.0799L23.5417 12.5028L23.0515 12.1233L23.684 11.641L23.265 11.3248Z" fill="#763D16"/>
<path fill-rule="evenodd" clip-rule="evenodd" d="M22.9793 4.95442C23.0268 4.96935 23.0642 5.00613 23.0801 5.05335L24.0841 8.04961C24.0928 8.07574 24.0945 8.10374 24.0889 8.13072L23.437 11.2598L23.7773 11.5167C23.8162 11.546 23.839 11.5917 23.8392 11.6404C23.8393 11.689 23.8166 11.7349 23.778 11.7644L23.3064 12.124L23.6366 12.3795C23.6729 12.4076 23.6949 12.4503 23.6967 12.4962C23.6986 12.5421 23.6801 12.5864 23.6462 12.6173L23.1552 13.0653L23.3951 13.238C23.4304 13.2635 23.4535 13.3026 23.4586 13.3458C23.4637 13.3891 23.4505 13.4325 23.4221 13.4655L22.5051 14.5328C22.4653 14.5791 22.4021 14.5978 22.3435 14.5807L18.2088 13.3711C18.188 13.365 18.1686 13.3546 18.152 13.3406L15.2269 10.8661C15.1907 10.8355 15.1704 10.7899 15.172 10.7425C15.1735 10.695 15.1966 10.6509 15.2347 10.6226L22.84 4.9779C22.88 4.94822 22.9317 4.93949 22.9793 4.95442ZM15.5775 10.7554L18.3277 13.0819L22.3346 14.2541L23.0759 13.3914L22.8181 13.2058C22.7801 13.1784 22.7564 13.1354 22.7537 13.0886C22.751 13.0418 22.7695 12.9963 22.8041 12.9648L23.3 12.5123L22.956 12.246C22.9179 12.2164 22.8956 12.1707 22.8958 12.1224C22.8959 12.0741 22.9185 12.0287 22.957 11.9994L23.4264 11.6414L23.171 11.4486C23.123 11.4124 23.1002 11.3517 23.1125 11.2928L23.7759 8.1085L22.8533 5.35527L15.5775 10.7554Z" fill="#763D16"/>
<path d="M3.77734 8.09929L4.44933 11.3248L4.02242 11.641L4.65488 12.1233L4.17263 12.5028L4.80509 13.0799L4.4098 13.3645L5.31896 14.4318L9.45364 13.2222L12.3788 10.7477L4.77346 5.10303L3.77734 8.09929Z" fill="#763D16"/>
<path fill-rule="evenodd" clip-rule="evenodd" d="M4.72663 4.95447C4.77419 4.93947 4.82605 4.94818 4.86609 4.9779L12.4714 10.6226C12.5095 10.6509 12.5326 10.695 12.5341 10.7425C12.5356 10.7899 12.5154 10.8355 12.4791 10.8661L9.55402 13.3406C9.53744 13.3546 9.5181 13.365 9.49725 13.3711L5.36257 14.5807C5.30375 14.5979 5.2403 14.579 5.20056 14.5323L4.2914 13.465C4.26324 13.432 4.25019 13.3886 4.25541 13.3455C4.26064 13.3024 4.28366 13.2634 4.31891 13.238L4.55876 13.0653L4.06779 12.6173C4.03404 12.5865 4.01555 12.5425 4.01721 12.4968C4.01888 12.4512 4.04054 12.4086 4.07644 12.3803L4.40095 12.1249L3.92811 11.7644C3.88924 11.7348 3.86657 11.6886 3.86691 11.6397C3.86725 11.5908 3.89056 11.5449 3.92984 11.5158L4.27678 11.2588L3.62509 8.13072C3.6195 8.10386 3.62111 8.07599 3.62977 8.04996L4.62588 5.0537C4.64162 5.00638 4.67908 4.96948 4.72663 4.95447ZM4.85321 5.35559L3.93806 8.10831L4.6015 11.2928C4.61387 11.3522 4.59058 11.4134 4.54184 11.4495L4.28116 11.6426L4.74911 11.9994C4.78735 12.0285 4.80995 12.0737 4.81031 12.1218C4.81068 12.1699 4.78877 12.2155 4.75098 12.2452L4.41287 12.5113L4.90985 12.9648C4.94445 12.9963 4.96297 13.0418 4.96027 13.0886C4.95756 13.1354 4.93391 13.1784 4.89589 13.2058L4.63752 13.3918L5.37195 14.254L9.37833 13.0819L12.1286 10.7554L4.85321 5.35559Z" fill="#763D16"/>
<path d="M22.3876 14.4313L18.2529 13.2217L19.5099 15.1111L17.6362 18.7478L20.1028 18.7161H23.779L22.3876 14.4313Z" fill="#F6851B"/>
<path fill-rule="evenodd" clip-rule="evenodd" d="M18.1273 13.1297C18.1661 13.0771 18.2335 13.0543 18.2962 13.0726L22.4309 14.2822C22.4803 14.2966 22.5193 14.3345 22.5352 14.3834L23.9266 18.6683C23.9419 18.7156 23.9337 18.7674 23.9044 18.8077C23.8752 18.848 23.8284 18.8718 23.7787 18.8718H20.1035L17.6379 18.9034C17.5834 18.9041 17.5324 18.8761 17.5037 18.8297C17.475 18.7833 17.4727 18.7252 17.4977 18.6767L19.3295 15.1213L18.1231 13.308C18.087 13.2536 18.0886 13.1823 18.1273 13.1297ZM18.6183 13.4908L19.639 15.0252C19.6703 15.0721 19.6736 15.1324 19.6478 15.1825L17.8927 18.5891L20.1025 18.5608L23.5647 18.5608L22.2648 14.5576L18.6183 13.4908Z" fill="#F6851B"/>
<path d="M9.45363 13.2217L5.31895 14.4313L3.94336 18.7161H7.6116L10.0703 18.7478L8.20453 15.1111L9.45363 13.2217Z" fill="#F6851B"/>
<path fill-rule="evenodd" clip-rule="evenodd" d="M9.57871 13.1295C9.61745 13.182 9.61928 13.2531 9.5833 13.3076L8.38433 15.1212L10.2086 18.6769C10.2335 18.7255 10.2311 18.7835 10.2024 18.8298C10.1737 18.8762 10.1228 18.9041 10.0682 18.9034L7.61054 18.8718H3.94332C3.89365 18.8718 3.84697 18.848 3.8177 18.8079C3.78843 18.7678 3.7801 18.7161 3.79528 18.6688L5.17088 14.3839C5.18665 14.3348 5.22575 14.2967 5.27526 14.2822L9.40994 13.0726C9.47257 13.0543 9.53997 13.077 9.57871 13.1295ZM5.44174 14.5575L4.15653 18.5608H7.61357L9.81403 18.5891L8.06616 15.1823C8.04053 15.1323 8.04383 15.0724 8.0748 15.0256L9.08976 13.4903L5.44174 14.5575Z" fill="#F6851B"/>
<path d="M15.0667 15.3089L15.3276 10.7473L16.5292 7.49805H11.1929L12.3787 10.7473L12.6554 15.3089L12.7503 16.7477L12.7582 20.2895H14.9481L14.9639 16.7477L15.0667 15.3089Z" fill="#F6851B"/>
<path fill-rule="evenodd" clip-rule="evenodd" d="M11.0654 7.4091C11.0945 7.36751 11.1421 7.34274 11.1928 7.34274H16.5292C16.5801 7.34274 16.6277 7.36763 16.6568 7.40937C16.6858 7.45112 16.6927 7.50444 16.675 7.55215L15.4814 10.7796L15.2217 15.3201L15.1193 16.7538L15.1035 20.2903C15.1031 20.3759 15.0336 20.4451 14.948 20.4451H12.7582C12.6724 20.4451 12.6029 20.3757 12.6027 20.29L12.5948 16.7532L12.5002 15.3193L12.5002 15.3185L12.2249 10.7795L11.0468 7.55153C11.0294 7.50385 11.0363 7.45068 11.0654 7.4091ZM11.4151 7.6537L12.5247 10.6942C12.5299 10.7083 12.533 10.7231 12.5339 10.7381L12.8105 15.2988L12.8106 15.2996L12.9054 16.7377C12.9056 16.741 12.9057 16.7443 12.9057 16.7476L12.9133 20.1342H14.7933L14.8084 16.7472C14.8084 16.7437 14.8085 16.7403 14.8088 16.7368L14.9115 15.2991L15.1723 10.7386C15.1732 10.7232 15.1763 10.708 15.1817 10.6935L16.3059 7.6537H11.4151Z" fill="#F6851B"/>
</svg>
