<svg width="28" height="28" viewBox="0 0 28 28" fill="none" xmlns="http://www.w3.org/2000/svg">
<path fill-rule="evenodd" clip-rule="evenodd" d="M0.953754 4.7775C0 6.65 0 9.1 0 14C0 18.9 0 21.35 0.953754 23.2225C1.79375 24.8675 3.1325 26.2062 4.7775 27.0462C6.65 28 9.1 28 14 28C18.9 28 21.35 28 23.2225 27.0462C24.8675 26.2062 26.2062 24.8675 27.0462 23.2225C28 21.35 28 18.9 28 14C28 9.1 28 6.65 27.0462 4.7775C26.2062 3.1325 24.8675 1.79375 23.2225 0.953754C21.35 0 18.9 0 14 0C9.1 0 6.65 0 4.7775 0.953754C3.1325 1.79375 1.79375 3.1325 0.953754 4.7775ZM20.9869 7.55123C21.2319 7.55123 21.4638 7.65188 21.6344 7.82254C21.805 7.99754 21.9013 8.23377 21.8969 8.47435C21.8532 11.0819 21.7525 13.0769 21.5644 14.6562C21.3807 16.2357 21.105 17.4081 20.6894 18.3575C20.4094 18.9919 20.0638 19.5169 19.6569 19.9631C19.11 20.5538 18.4844 20.9825 17.8019 21.3894C17.5101 21.5639 17.2067 21.7362 16.8885 21.9169C16.2095 22.3025 15.4629 22.7265 14.6169 23.2925C14.3107 23.4981 13.9125 23.4981 13.6063 23.2925C12.7473 22.7199 11.9909 22.2907 11.3057 21.902C11.1533 21.8155 11.0044 21.7311 10.8588 21.6475C10.0582 21.1838 9.3363 20.7419 8.7063 20.1031C8.2863 19.6831 7.92319 19.1712 7.63442 18.5631C7.24066 17.7493 6.97378 16.765 6.77691 15.4919C6.51441 13.79 6.38316 11.5631 6.33504 8.47435C6.33066 8.23377 6.42254 7.99754 6.59316 7.82254C6.76378 7.65188 7.00004 7.55123 7.24504 7.55123H7.6213C8.78065 7.55565 11.34 7.44188 13.5538 5.71813C13.8819 5.46438 14.3413 5.46438 14.6694 5.71813C16.8832 7.44188 19.4425 7.55565 20.6063 7.55123H20.9869ZM18.9525 17.7757C19.2369 17.1893 19.4732 16.38 19.6525 15.2162C19.8669 13.825 19.9982 11.935 20.0594 9.36254C18.6944 9.32312 16.3494 9.06065 14.1138 7.55565C11.8782 9.05623 9.53319 9.31877 8.17254 9.36254C8.22065 11.4888 8.31688 13.1425 8.47 14.4419C8.645 15.9207 8.89442 16.9225 9.205 17.6269C9.41065 18.095 9.63819 18.4319 9.90942 18.7293C10.2725 19.1275 10.7319 19.4557 11.3575 19.8319C11.6171 19.9876 11.9032 20.1495 12.2146 20.3259C12.7695 20.6399 13.4049 20.9995 14.1138 21.4507C14.8096 21.0069 15.4358 20.651 15.9842 20.3392C16.1496 20.2453 16.3078 20.1553 16.4588 20.0681C17.2288 19.6262 17.7975 19.2588 18.2219 18.83C18.5063 18.5369 18.7382 18.2175 18.9525 17.7757Z" fill="#3375BB"/>
</svg>
