<svg width="28" height="28" viewBox="0 0 28 28" fill="none" xmlns="http://www.w3.org/2000/svg">
<path d="M6.28012 9.9919C10.6377 5.67132 17.7012 5.67132 22.0645 9.9919L22.5887 10.5113C22.8086 10.7282 22.8086 11.0763 22.5887 11.2932L20.7961 13.0739C20.689 13.1824 20.5086 13.1824 20.4015 13.0739L19.6799 12.3605C16.6414 9.34695 11.7088 9.34695 8.67032 12.3605L7.89802 13.1253C7.79091 13.2338 7.61052 13.2338 7.50341 13.1253L5.70512 11.3446C5.48527 11.1277 5.48527 10.7795 5.70512 10.5626L6.28012 9.9919ZM25.7738 13.6675L27.3691 15.2485C27.589 15.4654 27.589 15.8135 27.3691 16.0304L20.1703 23.1705C19.9505 23.3874 19.601 23.3874 19.3811 23.1705L14.2681 18.1022C14.2117 18.0509 14.1272 18.0509 14.0708 18.1022L8.96346 23.1705C8.7436 23.3874 8.39409 23.3874 8.17424 23.1705L0.969822 16.0361C0.749968 15.8193 0.749968 15.4711 0.969822 15.2542L2.56517 13.6732C2.78502 13.4563 3.13453 13.4563 3.35438 13.6732L8.46738 18.7415C8.52375 18.7929 8.60831 18.7929 8.66468 18.7415L13.772 13.6732C13.9919 13.4563 14.3414 13.4563 14.5613 13.6732L19.6743 18.7415C19.7306 18.7929 19.8152 18.7929 19.8716 18.7415L24.9846 13.6732C25.1988 13.4506 25.5539 13.4506 25.7738 13.6675Z" fill="#3A99FB"/>
</svg>
