<svg width="14" height="14" viewBox="0 0 14 14" fill="none" xmlns="http://www.w3.org/2000/svg">
<path d="M11.7727 0H3.77841C3.71278 0 3.65909 0.0527344 3.65909 0.117188V0.9375C3.65909 1.00195 3.71278 1.05469 3.77841 1.05469H11.1761V11.1328C11.1761 11.1973 11.2298 11.25 11.2955 11.25H12.1307C12.1963 11.25 12.25 11.1973 12.25 11.1328V0.46875C12.25 0.209473 12.0367 0 11.7727 0ZM9.86364 1.875H2.22727C1.96328 1.875 1.75 2.08447 1.75 2.34375V10.1177C1.75 10.2422 1.80071 10.3608 1.8902 10.4487L4.47493 12.9873C4.50774 13.0195 4.54503 13.0459 4.5853 13.0679V13.0957H4.64794C4.70014 13.1147 4.75533 13.125 4.812 13.125H9.86364C10.1276 13.125 10.3409 12.9155 10.3409 12.6562V2.34375C10.3409 2.08447 10.1276 1.875 9.86364 1.875ZM4.58381 11.6045L3.29964 10.3418H4.58381V11.6045ZM9.26705 12.0703H5.53835V9.99023C5.53835 9.6665 5.27138 9.4043 4.94176 9.4043H2.82386V2.92969H9.26705V12.0703Z" fill="#62718A"/>
</svg>
