<svg width="46" height="46" viewBox="0 0 46 46" fill="none" xmlns="http://www.w3.org/2000/svg">
<g filter="url(#filter0_d_1987_12769)">
<rect x="5" y="3" width="36" height="36" rx="18" fill="#F7F7F9" shape-rendering="crispEdges"/>
<path fill-rule="evenodd" clip-rule="evenodd" d="M30.6027 26.0797C31.6073 24.5763 32.1436 22.8087 32.1437 21.0004C32.1438 19.7997 31.9073 18.6107 31.4479 17.5013C30.9884 16.392 30.3149 15.384 29.4659 14.5349C28.6168 13.6859 27.6088 13.0124 26.4995 12.5529C25.3901 12.0934 24.2011 11.857 23.0004 11.8571C21.1921 11.8572 19.4245 12.3935 17.9211 13.3981C16.4176 14.4028 15.2458 15.8307 14.5539 17.5013C13.862 19.1719 13.6809 21.0102 14.0337 22.7837C14.3865 24.5572 15.2573 26.1863 16.5359 27.4649C17.8145 28.7435 19.4436 29.6143 21.2171 29.9671C22.9906 30.3199 24.8288 30.1388 26.4995 29.4469C28.1701 28.755 29.598 27.5832 30.6027 26.0797ZM28.8687 20.2674C29.0131 20.4853 29.0902 20.7408 29.0905 21.0022C29.0903 21.2601 29.0153 21.5124 28.8746 21.7286C28.7338 21.9448 28.5333 22.1155 28.2974 22.22C28.3179 22.3526 28.3283 22.4866 28.3285 22.6207C28.3285 24.6719 25.9404 26.3353 22.9951 26.3353C20.0498 26.3353 17.6617 24.6719 17.6617 22.6207C17.662 22.4857 17.6727 22.3508 17.6938 22.2174C17.5162 22.1382 17.3582 22.021 17.2307 21.8742C17.1032 21.7273 17.0094 21.5544 16.9559 21.3674C16.9023 21.1805 16.8903 20.9841 16.9208 20.792C16.9512 20.5999 17.0233 20.4168 17.132 20.2556C17.2406 20.0943 17.3833 19.9588 17.5499 19.8586C17.7166 19.7583 17.9031 19.6957 18.0965 19.6752C18.2898 19.6547 18.4854 19.6768 18.6693 19.7398C18.8533 19.8029 19.0212 19.9055 19.1613 20.0403C20.084 19.3773 21.3602 18.9502 22.7794 18.9108L23.4575 15.7224C23.464 15.6917 23.4765 15.6627 23.4943 15.6369C23.5121 15.6111 23.5348 15.5891 23.5611 15.5721C23.5872 15.5549 23.6165 15.5431 23.6472 15.5374C23.6779 15.5317 23.7095 15.5322 23.74 15.5389L25.956 16.0096C26.0587 15.8014 26.2339 15.6378 26.4486 15.5495C26.6633 15.4612 26.9028 15.4543 27.1223 15.53C27.3418 15.6057 27.5261 15.7589 27.6407 15.9608C27.7553 16.1627 27.7924 16.3994 27.7449 16.6267C27.6974 16.8539 27.5687 17.0561 27.3828 17.1952C27.197 17.3343 26.9668 17.4009 26.7354 17.3824C26.5039 17.3639 26.2872 17.2617 26.1258 17.0948C25.9643 16.928 25.8693 16.708 25.8585 16.4761L23.8742 16.0541L23.2667 18.9139C24.6652 18.9627 25.9207 19.3877 26.8325 20.0455C27.0205 19.8638 27.2578 19.7415 27.5149 19.6937C27.7719 19.6459 28.0374 19.6748 28.2781 19.7769C28.5188 19.8789 28.7242 20.0495 28.8687 20.2674ZM29.0905 21.0022C29.0905 21.0023 29.0905 21.0023 29.0905 21.0024V21.0019C29.0905 21.002 29.0905 21.0021 29.0905 21.0022ZM20.1096 21.4257C20.005 21.5822 19.9492 21.7663 19.9492 21.9546C19.9496 22.2071 20.0501 22.4492 20.2287 22.6277C20.4073 22.8062 20.6494 22.9066 20.9019 22.9069C21.0903 22.9068 21.2743 22.8508 21.4308 22.7461C21.5874 22.6414 21.7093 22.4927 21.7813 22.3187C21.8533 22.1447 21.8721 21.9532 21.8353 21.7685C21.7985 21.5839 21.7078 21.4142 21.5746 21.2811C21.4414 21.148 21.2717 21.0574 21.087 21.0207C20.9023 20.984 20.7109 21.0029 20.5369 21.0749C20.3629 21.147 20.2142 21.2691 20.1096 21.4257ZM22.9982 25.1705C23.3642 25.1705 24.6098 25.1203 25.2598 24.4713C25.2836 24.4486 25.3026 24.4214 25.3157 24.3913C25.3288 24.3611 25.3358 24.3287 25.3362 24.2958C25.3366 24.263 25.3305 24.2304 25.3181 24.1999C25.3058 24.1695 25.2874 24.1418 25.2642 24.1185C25.241 24.0953 25.2134 24.0768 25.183 24.0644C25.1526 24.0519 25.12 24.0457 25.0871 24.046C25.0543 24.0463 25.0218 24.0532 24.9916 24.0662C24.9615 24.0793 24.9342 24.0982 24.9115 24.1219C24.5014 24.5319 23.6244 24.6771 22.9982 24.6771C22.372 24.6771 21.4955 24.5319 21.086 24.1219C21.0631 24.099 21.0359 24.0808 21.0059 24.0683C20.976 24.0559 20.9439 24.0495 20.9115 24.0495C20.879 24.0494 20.8469 24.0558 20.817 24.0682C20.787 24.0806 20.7598 24.0987 20.7368 24.1216C20.7139 24.1445 20.6957 24.1717 20.6833 24.2017C20.6708 24.2316 20.6644 24.2637 20.6644 24.2961C20.6644 24.3286 20.6707 24.3607 20.6831 24.3906C20.6955 24.4206 20.7137 24.4478 20.7366 24.4708C21.3861 25.1187 22.6322 25.1705 22.9982 25.1705ZM24.5633 22.7464C24.7199 22.851 24.904 22.9069 25.0924 22.9069C25.3448 22.9066 25.5869 22.8062 25.7654 22.6277C25.9439 22.4491 26.0443 22.2071 26.0446 21.9546C26.0446 21.7663 25.9888 21.5822 25.8841 21.4256C25.7795 21.269 25.6308 21.147 25.4568 21.0749C25.2828 21.0028 25.0913 20.984 24.9066 21.0207C24.7219 21.0574 24.5522 21.1481 24.419 21.2813C24.2859 21.4145 24.1952 21.5841 24.1584 21.7689C24.1217 21.9536 24.1406 22.145 24.2126 22.319C24.2847 22.493 24.4067 22.6418 24.5633 22.7464Z" fill="#62718A"/>
<rect x="5.5" y="3.5" width="35" height="35" rx="17.5" stroke="white" shape-rendering="crispEdges"/>
</g>
<defs>
<filter id="filter0_d_1987_12769" x="0.428572" y="0.714286" width="45.1429" height="45.1429" filterUnits="userSpaceOnUse" color-interpolation-filters="sRGB">
<feFlood flood-opacity="0" result="BackgroundImageFix"/>
<feColorMatrix in="SourceAlpha" type="matrix" values="0 0 0 0 0 0 0 0 0 0 0 0 0 0 0 0 0 0 127 0" result="hardAlpha"/>
<feOffset dy="2.28571"/>
<feGaussianBlur stdDeviation="2.28571"/>
<feComposite in2="hardAlpha" operator="out"/>
<feColorMatrix type="matrix" values="0 0 0 0 0.705882 0 0 0 0 0.72549 0 0 0 0 0.780392 0 0 0 0.25 0"/>
<feBlend mode="normal" in2="BackgroundImageFix" result="effect1_dropShadow_1987_12769"/>
<feBlend mode="normal" in="SourceGraphic" in2="effect1_dropShadow_1987_12769" result="shape"/>
</filter>
</defs>
</svg>
