<svg width="24" height="24" viewBox="0 0 24 24" fill="none" xmlns="http://www.w3.org/2000/svg">
<circle cx="12" cy="12" r="10.9091" fill="black"/>
<path d="M7.72518 17.4545L9.6251 14.176L11.525 10.9091L13.4134 7.63059L13.7261 7.11111L13.8652 7.63059L14.4444 9.78932L13.7957 10.9091L11.8957 14.176L10.0074 17.4545H12.278L14.178 14.176L15.1627 12.4791L15.6261 14.176L16.5065 17.4545H18.5455L17.665 14.176L16.7846 10.9091L16.5529 10.0664L17.9662 7.63059H15.9041L15.8346 7.38816L15.1163 4.70995L15.0237 4.36363H13.0426L12.9963 4.4329L11.1427 7.63059L9.2428 10.9091L7.35446 14.176L5.45454 17.4545H7.72518Z" fill="white"/>
</svg>
