<svg width="144" height="41" viewBox="0 0 144 41" fill="none" xmlns="http://www.w3.org/2000/svg">
<path d="M1.15992 16.2249H0.140633L2.43092 9.86053H3.54033L5.83062 16.2249H4.81133L3.01204 11.0166H2.96232L1.15992 16.2249ZM1.33084 13.7326H4.63731V14.5406H1.33084V13.7326Z" fill="#62718A"/>
<path d="M9.91344 14.2453V11.4516H10.8457V16.2249H9.93208V15.3983H9.88236C9.77256 15.6531 9.59646 15.8654 9.35407 16.0353C9.11375 16.2031 8.81439 16.287 8.45598 16.287C8.14937 16.287 7.87797 16.2197 7.64179 16.085C7.40769 15.9483 7.22331 15.7463 7.08864 15.479C6.95605 15.2118 6.88976 14.8814 6.88976 14.4877V11.4516H7.81893V14.3759C7.81893 14.7011 7.90905 14.9601 8.08929 15.1528C8.26953 15.3454 8.50363 15.4418 8.7916 15.4418C8.96562 15.4418 9.13861 15.3983 9.31057 15.3112C9.48459 15.2242 9.62858 15.0927 9.74252 14.9166C9.85854 14.7405 9.91551 14.5167 9.91344 14.2453Z" fill="#62718A"/>
<path d="M14.0957 16.3181C13.7104 16.3181 13.3665 16.2197 13.064 16.0229C12.7636 15.824 12.5274 15.5412 12.3555 15.1745C12.1856 14.8057 12.1006 14.3634 12.1006 13.8476C12.1006 13.3317 12.1866 12.8904 12.3586 12.5237C12.5326 12.157 12.7708 11.8763 13.0733 11.6816C13.3758 11.4868 13.7186 11.3895 14.1019 11.3895C14.3982 11.3895 14.6364 11.4392 14.8167 11.5386C14.999 11.636 15.1398 11.7499 15.2393 11.8805C15.3408 12.011 15.4195 12.126 15.4755 12.2254H15.5314V9.86053H16.4606V16.2249H15.5532V15.4822H15.4755C15.4195 15.5837 15.3387 15.6997 15.2331 15.8302C15.1295 15.9607 14.9865 16.0747 14.8042 16.172C14.6219 16.2694 14.3857 16.3181 14.0957 16.3181ZM14.3008 15.5257C14.5681 15.5257 14.7939 15.4552 14.9783 15.3143C15.1647 15.1714 15.3056 14.9735 15.4009 14.7208C15.4983 14.468 15.5469 14.1739 15.5469 13.8382C15.5469 13.5068 15.4993 13.2167 15.404 12.9681C15.3087 12.7195 15.1689 12.5258 14.9845 12.387C14.8001 12.2482 14.5722 12.1788 14.3008 12.1788C14.0211 12.1788 13.788 12.2513 13.6016 12.3963C13.4151 12.5413 13.2743 12.7392 13.179 12.9899C13.0857 13.2406 13.0391 13.5233 13.0391 13.8382C13.0391 14.1573 13.0868 14.4442 13.1821 14.699C13.2774 14.9539 13.4182 15.1559 13.6047 15.305C13.7932 15.4521 14.0253 15.5257 14.3008 15.5257Z" fill="#62718A"/>
<path d="M18.0014 16.2249V11.4516H18.9306V16.2249H18.0014ZM18.4706 10.7151C18.309 10.7151 18.1702 10.6613 18.0542 10.5535C17.9403 10.4437 17.8833 10.3132 17.8833 10.162C17.8833 10.0087 17.9403 9.87814 18.0542 9.77041C18.1702 9.66061 18.309 9.60571 18.4706 9.60571C18.6322 9.60571 18.77 9.66061 18.8839 9.77041C19 9.87814 19.058 10.0087 19.058 10.162C19.058 10.3132 19 10.4437 18.8839 10.5535C18.77 10.6613 18.6322 10.7151 18.4706 10.7151Z" fill="#62718A"/>
<path d="M22.6234 11.4516V12.1974H20.0161V11.4516H22.6234ZM20.7153 10.308H21.6445V14.8233C21.6445 15.0036 21.6714 15.1393 21.7253 15.2304C21.7791 15.3195 21.8485 15.3806 21.9335 15.4138C22.0205 15.4449 22.1148 15.4604 22.2163 15.4604C22.2909 15.4604 22.3561 15.4552 22.4121 15.4449C22.468 15.4345 22.5115 15.4262 22.5426 15.42L22.7104 16.1876C22.6565 16.2083 22.5799 16.229 22.4804 16.2497C22.381 16.2725 22.2567 16.2849 22.1075 16.287C21.863 16.2912 21.6352 16.2477 21.4238 16.1565C21.2125 16.0653 21.0416 15.9245 20.9111 15.7339C20.7806 15.5433 20.7153 15.304 20.7153 15.016V10.308Z" fill="#62718A"/>
<path d="M25.8718 16.3212C25.4015 16.3212 24.9965 16.2207 24.6567 16.0198C24.319 15.8167 24.058 15.5319 23.8736 15.1652C23.6913 14.7964 23.6002 14.3645 23.6002 13.8693C23.6002 13.3804 23.6913 12.9495 23.8736 12.5766C24.058 12.2037 24.3149 11.9126 24.6443 11.7033C24.9758 11.4941 25.3632 11.3895 25.8065 11.3895C26.0759 11.3895 26.3369 11.434 26.5897 11.5231C26.8424 11.6122 27.0693 11.752 27.2702 11.9426C27.4712 12.1332 27.6297 12.3808 27.7457 12.6853C27.8617 12.9878 27.9197 13.3555 27.9197 13.7885V14.1179H24.1253V13.4218H27.0092C27.0092 13.1774 26.9595 12.9609 26.86 12.7723C26.7606 12.5817 26.6207 12.4315 26.4405 12.3217C26.2623 12.2119 26.0531 12.157 25.8128 12.157C25.5517 12.157 25.3238 12.2213 25.1291 12.3497C24.9364 12.4761 24.7873 12.6418 24.6816 12.8469C24.578 13.05 24.5262 13.2706 24.5262 13.5088V14.0527C24.5262 14.3717 24.5822 14.6431 24.694 14.8669C24.808 15.0906 24.9665 15.2615 25.1695 15.3796C25.3725 15.4956 25.6097 15.5536 25.8811 15.5536C26.0572 15.5536 26.2178 15.5288 26.3628 15.479C26.5078 15.4273 26.6332 15.3506 26.7388 15.2491C26.8445 15.1476 26.9253 15.0222 26.9812 14.8731L27.8607 15.0316C27.7902 15.2905 27.6638 15.5174 27.4815 15.7121C27.3013 15.9048 27.0744 16.055 26.801 16.1627C26.5296 16.2684 26.2199 16.3212 25.8718 16.3212Z" fill="#62718A"/>
<path d="M30.9522 16.3181C30.5668 16.3181 30.2229 16.2197 29.9204 16.0229C29.62 15.824 29.3839 15.5412 29.2119 15.1745C29.042 14.8057 28.9571 14.3634 28.9571 13.8476C28.9571 13.3317 29.0431 12.8904 29.215 12.5237C29.389 12.157 29.6273 11.8763 29.9298 11.6816C30.2322 11.4868 30.5751 11.3895 30.9584 11.3895C31.2546 11.3895 31.4929 11.4392 31.6731 11.5386C31.8554 11.636 31.9963 11.7499 32.0957 11.8805C32.1973 12.011 32.276 12.126 32.3319 12.2254H32.3879V9.86053H33.317V16.2249H32.4096V15.4822H32.3319C32.276 15.5837 32.1952 15.6997 32.0895 15.8302C31.9859 15.9607 31.843 16.0747 31.6607 16.172C31.4784 16.2694 31.2422 16.3181 30.9522 16.3181ZM31.1573 15.5257C31.4245 15.5257 31.6503 15.4552 31.8347 15.3143C32.0212 15.1714 32.162 14.9735 32.2573 14.7208C32.3547 14.468 32.4034 14.1739 32.4034 13.8382C32.4034 13.5068 32.3557 13.2167 32.2604 12.9681C32.1651 12.7195 32.0253 12.5258 31.8409 12.387C31.6565 12.2482 31.4286 12.1788 31.1573 12.1788C30.8776 12.1788 30.6445 12.2513 30.458 12.3963C30.2716 12.5413 30.1307 12.7392 30.0354 12.9899C29.9422 13.2406 29.8956 13.5233 29.8956 13.8382C29.8956 14.1573 29.9432 14.4442 30.0385 14.699C30.1338 14.9539 30.2747 15.1559 30.4612 15.305C30.6497 15.4521 30.8817 15.5257 31.1573 15.5257Z" fill="#62718A"/>
<path d="M37.463 16.2249V9.86053H38.3922V12.2254H38.4481C38.502 12.126 38.5797 12.011 38.6812 11.8805C38.7827 11.7499 38.9236 11.636 39.1038 11.5386C39.284 11.4392 39.5223 11.3895 39.8186 11.3895C40.2039 11.3895 40.5478 11.4868 40.8503 11.6816C41.1527 11.8763 41.39 12.157 41.5619 12.5237C41.7359 12.8904 41.8229 13.3317 41.8229 13.8476C41.8229 14.3634 41.737 14.8057 41.565 15.1745C41.3931 15.5412 41.1569 15.824 40.8565 16.0229C40.5561 16.2197 40.2132 16.3181 39.8279 16.3181C39.5378 16.3181 39.3006 16.2694 39.1162 16.172C38.9339 16.0747 38.791 15.9607 38.6874 15.8302C38.5838 15.6997 38.504 15.5837 38.4481 15.4822H38.3704V16.2249H37.463ZM38.3735 13.8382C38.3735 14.1739 38.4222 14.468 38.5196 14.7208C38.617 14.9735 38.7578 15.1714 38.9422 15.3143C39.1266 15.4552 39.3524 15.5257 39.6197 15.5257C39.8973 15.5257 40.1293 15.4521 40.3158 15.305C40.5022 15.1559 40.6431 14.9539 40.7384 14.699C40.8358 14.4442 40.8845 14.1573 40.8845 13.8382C40.8845 13.5233 40.8368 13.2406 40.7415 12.9899C40.6483 12.7392 40.5074 12.5413 40.3189 12.3963C40.1324 12.2513 39.8993 12.1788 39.6197 12.1788C39.3503 12.1788 39.1225 12.2482 38.936 12.387C38.7516 12.5258 38.6118 12.7195 38.5165 12.9681C38.4212 13.2167 38.3735 13.5068 38.3735 13.8382Z" fill="#62718A"/>
<path d="M43.5059 18.0148C43.3671 18.0148 43.2408 18.0034 43.1268 17.9807C43.0129 17.9599 42.9279 17.9371 42.872 17.9123L43.0957 17.1509C43.2656 17.1965 43.4168 17.2162 43.5494 17.21C43.682 17.2038 43.7991 17.154 43.9006 17.0608C44.0042 16.9676 44.0953 16.8153 44.1741 16.604L44.289 16.287L42.5426 11.4516H43.537L44.7459 15.1559H44.7956L46.0044 11.4516H47.002L45.0349 16.8619C44.9437 17.1105 44.8277 17.3208 44.6868 17.4928C44.5459 17.6668 44.3781 17.7973 44.1834 17.8843C43.9886 17.9713 43.7628 18.0148 43.5059 18.0148Z" fill="#62718A"/>
<path d="M48.702 16.2839C48.5322 16.2839 48.3861 16.2238 48.2639 16.1037C48.1416 15.9814 48.0805 15.8343 48.0805 15.6624C48.0805 15.4925 48.1416 15.3475 48.2639 15.2273C48.3861 15.1051 48.5322 15.044 48.702 15.044C48.8719 15.044 49.018 15.1051 49.1402 15.2273C49.2624 15.3475 49.3236 15.4925 49.3236 15.6624C49.3236 15.7763 49.2946 15.881 49.2365 15.9763C49.1806 16.0695 49.106 16.1441 49.0128 16.2C48.9196 16.2559 48.816 16.2839 48.702 16.2839ZM48.702 12.8096C48.5322 12.8096 48.3861 12.7485 48.2639 12.6263C48.1416 12.5041 48.0805 12.358 48.0805 12.1881C48.0805 12.0182 48.1416 11.8732 48.2639 11.7531C48.3861 11.6308 48.5322 11.5697 48.702 11.5697C48.8719 11.5697 49.018 11.6308 49.1402 11.7531C49.2624 11.8732 49.3236 12.0182 49.3236 12.1881C49.3236 12.3021 49.2946 12.4067 49.2365 12.502C49.1806 12.5952 49.106 12.6698 49.0128 12.7257C48.9196 12.7817 48.816 12.8096 48.702 12.8096Z" fill="#62718A"/>
<path d="M82.5315 22.2304V26.3244L78.3949 22.2304H75.4951V31.3708H78.3949V27.2341L82.56 31.3708H85.4314V22.2304H82.5315Z" fill="#62718A"/>
<path d="M32.7928 31.3708H40.469V28.8262H32.7928V24.8176H40.4832V22.2304H32.7928H30.2341H29.9356V31.3708H30.2341H32.7928Z" fill="#62718A"/>
<path d="M63.4975 31.3708H70.5766V28.8262H63.4975V28.0728H70.5766V25.5141H63.4975V24.7891H70.5766V22.2304H63.4975H60.8677H60.626V31.3708H60.9245H63.4975Z" fill="#62718A"/>
<path d="M17.8669 29.3238H22.1315V31.3708H24.9887V22.2304H24.5622H22.1315H17.8669H15.6067H15.0097V26.7793V29.3238V31.3708H17.8669V29.3238ZM17.8669 24.7749H22.1315V26.7793H17.8669V24.7749Z" fill="#62718A"/>
<path d="M3.01209 28.1297H7.19134V31.3707H10.0628V22.2304H7.19134V25.4146H3.01209V22.2304H0.140633V31.3707H3.01209V28.1297Z" fill="#62718A"/>
<path d="M48.3015 28.1013H52.7366L55.5796 25.3862H55.6081V22.2304H52.7366V25.3862H48.3015V22.2304H45.43V31.3708H48.3015V28.1013Z" fill="#62718A"/>
<path d="M55.608 28.1013H52.7366V31.3708H55.608V28.1013Z" fill="#62718A"/>
<g clip-path="url(#clip0_1987_12692)">
<path d="M142.418 19.1863H141.434V24.5907L142.262 25.3936L144 25.435V24.359H142.418V21.4245H143.628V20.4958H142.418V19.1863Z" fill="#62718A"/>
<path d="M124.541 26.0971H123.557V31.5015L124.385 32.3044L126.123 32.3457V31.2698H124.541V28.3353H125.751V27.4066H124.541V26.0971Z" fill="#62718A"/>
<path d="M134.307 26.0971H133.323V31.5015L134.151 32.3044L135.889 32.3457V31.2698H134.307V28.3353H135.517V27.4066H134.307V26.0971Z" fill="#62718A"/>
<path d="M137.793 21.3949L138.676 20.4691H140.358V21.3949H138.676V25.435H137.793V21.3949Z" fill="#62718A"/>
<path d="M124.882 25.435H123.723V21.3795L124.675 20.4691H126.744L127.282 20.9657L127.778 20.4691H129.599L130.385 21.3795V25.435H129.309V21.3795H127.613V25.435H126.537V21.3795H124.882V25.435Z" fill="#62718A"/>
<path d="M118.674 21.5037H121.405L121.761 21.7933L122.357 21.1726L121.612 20.5105H118.545L117.64 21.3795V22.4968L118.545 23.4486H121.612V24.4832H118.923L118.426 24.0693L117.805 24.7315L118.545 25.3522H121.761L122.647 24.5246V23.4486L121.761 22.4968H118.674V21.5037Z" fill="#62718A"/>
<path d="M118.633 28.4972H121.364L121.72 28.7869L122.316 28.1662L121.571 27.504H118.504L117.598 28.3731V29.4904L118.504 30.4422H121.571V31.4767H118.881L118.385 31.0629L117.764 31.725L118.504 32.3457H121.72L122.605 31.5181V30.4422L121.72 29.4904H118.633V28.4972Z" fill="#62718A"/>
<path fill-rule="evenodd" clip-rule="evenodd" d="M141.683 31.725L140.979 31.0215L140.565 31.4353H137.875V30.4008H140.689L141.6 29.5732V28.4145L140.607 27.4213H137.875L136.8 28.4972V31.4353L137.71 32.3871H140.979L141.683 31.725ZM140.565 28.4972H137.917V29.5732H140.565V28.4972Z" fill="#62718A"/>
<path fill-rule="evenodd" clip-rule="evenodd" d="M131.668 21.1726L132.33 21.8761L132.661 21.545H135.186V22.4555H132.33L131.42 23.2831V24.4418L132.413 25.435H134.689L135.475 24.897L135.889 25.3522H136.758V24.4832H136.262V21.4209L135.434 20.4691H132.33L131.668 21.1726ZM132.537 23.4486H135.186V24.1521L134.689 24.4418H132.537V23.4486Z" fill="#62718A"/>
<path fill-rule="evenodd" clip-rule="evenodd" d="M127.282 28.1248L127.944 28.8283L128.275 28.4972H130.799V29.4076H127.944L127.033 30.2353V31.394L128.027 32.3871H130.303L131.089 31.8492L131.503 32.3044H132.372V31.4353H131.875V28.3731L131.047 27.4213H127.944L127.282 28.1248ZM128.151 30.4008H130.799V31.1043L130.303 31.394H128.151V30.4008Z" fill="#62718A"/>
<path d="M115.161 28.1655L115.162 25.2532L112.942 24.0138L110.318 25.4631L108.119 29.4043L108.223 32.4695L110.443 33.709L113.101 31.8559L115.161 28.1655Z" fill="#62718A"/>
<path d="M100.382 28.1655L100.38 25.2532L102.6 24.0138L105.224 25.4631L107.423 29.4043L107.319 32.4695L105.099 33.709L102.441 31.8559L100.382 28.1655Z" fill="#62718A"/>
<path d="M105.493 24.7315L102.949 23.3139V20.7706L105.493 19.1863H110.006L112.632 20.7706V23.3139L109.719 24.7315H105.493Z" fill="#62718A"/>
</g>
<defs>
<clipPath id="clip0_1987_12692">
<rect width="44.8581" height="15.2286" fill="white" transform="translate(99.1419 19.1863)"/>
</clipPath>
</defs>
</svg>
