<svg width="25" height="24" viewBox="0 0 25 24" fill="none" xmlns="http://www.w3.org/2000/svg">
<circle cx="12.5" cy="12" r="10.9091" fill="#F3BA2F"/>
<path d="M14.0897 17.0442V18.8303L12.5693 19.7454L11.0921 18.8303V17.0442L12.5693 17.9593L14.0897 17.0442ZM5.95454 10.8666L7.43169 11.7818V14.8447L9.97527 16.402V18.1881L5.95454 15.7599V10.8666ZM19.184 10.8666V15.7673L15.1201 18.1955V16.4094L17.6637 14.8521V11.7892L19.184 10.8666ZM15.1129 8.43841L16.6333 9.3536V11.1397L14.0897 12.697V15.8042L12.6125 16.7194L11.1426 15.8042V12.6896L8.50533 11.1323V9.34622L10.0257 8.43103L12.5693 9.98833L15.1129 8.43841ZM8.50533 12.4165L9.98248 13.3317V15.1178L8.50533 14.2026V12.4165ZM16.6333 12.4165V14.2026L15.1561 15.1178V13.3317L16.6333 12.4165ZM7.43169 6.88111L8.95208 7.7963L7.43169 8.71149V10.4976L5.95454 9.5824V7.7963L7.43169 6.88111ZM17.7069 6.88111L19.2273 7.7963V9.5824L17.7069 10.4976V8.71149L16.2297 7.7963L17.7069 6.88111ZM12.5693 6.88111L14.0897 7.7963L12.5693 8.71149L11.0921 7.7963L12.5693 6.88111ZM12.5693 3.81818L16.6333 6.24638L15.1561 7.16157L12.6125 5.60427L10.0185 7.16157L8.54136 6.24638L12.5693 3.81818Z" fill="white"/>
</svg>
