<svg width="16" height="17" viewBox="0 0 16 17" fill="none" xmlns="http://www.w3.org/2000/svg">
<path fill-rule="evenodd" clip-rule="evenodd" d="M1.9205 0.954505C1.48116 0.515165 0.768845 0.515165 0.329505 0.954505C-0.109835 1.39384 -0.109835 2.10616 0.329505 2.5455L6.28401 8.5L0.329505 14.4545C-0.109835 14.8938 -0.109835 15.6062 0.329505 16.0455C0.768845 16.4848 1.48116 16.4848 1.9205 16.0455L8 9.96599L14.0795 16.0455C14.5188 16.4848 15.2312 16.4848 15.6705 16.0455C16.1098 15.6062 16.1098 14.8938 15.6705 14.4545L9.71599 8.5L15.6705 2.5455C16.1098 2.10616 16.1098 1.39384 15.6705 0.954505C15.2312 0.515165 14.5188 0.515165 14.0795 0.954505L8 7.03401L1.9205 0.954505Z" fill="#62718A"/>
</svg>
