<svg width="20" height="21" viewBox="0 0 20 21" fill="none" xmlns="http://www.w3.org/2000/svg">
<path d="M10 10.5C10.4602 10.5 10.8333 10.1269 10.8333 9.66665C10.8333 9.20641 10.4602 8.83331 10 8.83331C9.53977 8.83331 9.16667 9.20641 9.16667 9.66665C9.16667 10.1269 9.53977 10.5 10 10.5Z" fill="#14161A"/>
<path d="M13.3333 10.5C13.7936 10.5 14.1667 10.1269 14.1667 9.66665C14.1667 9.20641 13.7936 8.83331 13.3333 8.83331C12.8731 8.83331 12.5 9.20641 12.5 9.66665C12.5 10.1269 12.8731 10.5 13.3333 10.5Z" fill="#14161A"/>
<path d="M6.66666 10.5C7.1269 10.5 7.5 10.1269 7.5 9.66665C7.5 9.20641 7.1269 8.83331 6.66666 8.83331C6.20642 8.83331 5.83333 9.20641 5.83333 9.66665C5.83333 10.1269 6.20642 10.5 6.66666 10.5Z" fill="#14161A"/>
<path d="M15.8333 3H4.16667C3.50363 3 2.86775 3.26339 2.3989 3.73223C1.93006 4.20107 1.66667 4.83696 1.66667 5.5V18C1.66693 18.1477 1.70641 18.2926 1.78109 18.42C1.85577 18.5474 1.96295 18.6526 2.09167 18.725C2.21622 18.7956 2.35685 18.8329 2.50001 18.8333C2.64957 18.8333 2.79638 18.793 2.92501 18.7167L6.66667 16.45C6.80498 16.3677 6.96417 16.3271 7.12501 16.3333H15.8333C16.4964 16.3333 17.1323 16.0699 17.6011 15.6011C18.0699 15.1323 18.3333 14.4964 18.3333 13.8333V5.5C18.3333 4.83696 18.0699 4.20107 17.6011 3.73223C17.1323 3.26339 16.4964 3 15.8333 3ZM16.6667 13.8333C16.6667 14.0543 16.5789 14.2663 16.4226 14.4226C16.2663 14.5789 16.0544 14.6667 15.8333 14.6667H7.12501C6.66986 14.6663 6.22325 14.7902 5.83334 15.025L3.33334 16.525V5.5C3.33334 5.27899 3.42114 5.06702 3.57742 4.91074C3.7337 4.75446 3.94566 4.66667 4.16667 4.66667H15.8333C16.0544 4.66667 16.2663 4.75446 16.4226 4.91074C16.5789 5.06702 16.6667 5.27899 16.6667 5.5V13.8333Z" fill="#14161A"/>
</svg>
