<svg width="62" height="61" viewBox="0 0 62 61" fill="none" xmlns="http://www.w3.org/2000/svg">
<path d="M50.3902 8.21719L33.8964 21.9086L36.9465 13.8309L50.3902 8.21719Z" fill="#E2761B"/>
<path fill-rule="evenodd" clip-rule="evenodd" d="M50.6753 8.04248C50.7529 8.20192 50.7137 8.40088 50.5833 8.5091L34.0895 22.2005C33.9715 22.2985 33.8094 22.296 33.6938 22.1946C33.5782 22.0931 33.5376 21.9177 33.5948 21.7663L36.6449 13.6886C36.6798 13.5962 36.7471 13.524 36.8311 13.4889L50.2749 7.87527C50.427 7.81175 50.5977 7.88305 50.6753 8.04248ZM37.191 14.1166L34.6601 20.8191L48.3459 9.45869L37.191 14.1166Z" fill="#E2761B"/>
<path d="M12.3136 8.21719L28.6748 22.0383L25.7739 13.8309L12.3136 8.21719Z" fill="#E4761B"/>
<path fill-rule="evenodd" clip-rule="evenodd" d="M12.0266 8.04121C12.1045 7.88265 12.2747 7.81198 12.4263 7.87522L25.8867 13.4889C25.9732 13.525 26.042 13.6004 26.0759 13.6964L28.9768 21.9038C29.0305 22.0557 28.9872 22.229 28.8709 22.3278C28.7545 22.4266 28.5936 22.4268 28.477 22.3284L12.1158 8.50726C11.9867 8.39819 11.9487 8.19976 12.0266 8.04121ZM14.2896 9.43009L27.9437 20.9644L25.5228 14.1149L14.2896 9.43009Z" fill="#E4761B"/>
<path d="M44.4558 39.9527L40.063 47.4747L49.462 50.3649L52.164 40.1195L44.4558 39.9527Z" fill="#E4761B"/>
<path fill-rule="evenodd" clip-rule="evenodd" d="M44.1819 39.754C44.2433 39.6488 44.3489 39.5864 44.4612 39.5889L52.1694 39.7556C52.2711 39.7578 52.366 39.8129 52.4261 39.9045C52.4862 39.9962 52.5046 40.1139 52.4758 40.2229L49.7738 50.4683C49.7236 50.6589 49.546 50.7693 49.3746 50.7166L39.9756 47.8264C39.8752 47.7956 39.7941 47.713 39.7572 47.6042C39.7203 47.4953 39.7322 47.3734 39.7891 47.276L44.1819 39.754ZM44.6292 40.3214L40.5792 47.2562L49.2389 49.9191L51.7296 40.475L44.6292 40.3214Z" fill="#E4761B"/>
<path d="M10.5723 40.1195L13.2577 50.3649L22.6567 47.4747L18.2639 39.9527L10.5723 40.1195Z" fill="#E4761B"/>
<path fill-rule="evenodd" clip-rule="evenodd" d="M18.2574 39.5889C18.3697 39.5864 18.4753 39.6488 18.5367 39.754L22.9296 47.276C22.9865 47.3734 22.9983 47.4953 22.9614 47.6042C22.9246 47.713 22.8434 47.7956 22.743 47.8264L13.344 50.7166C13.1724 50.7694 12.9947 50.6586 12.9447 50.4678L10.2592 40.2223C10.2307 40.1134 10.2492 39.9958 10.3093 39.9043C10.3694 39.8128 10.4642 39.7578 10.5658 39.7556L18.2574 39.5889ZM11.0049 40.475L13.4802 49.9189L22.1394 47.2562L18.0894 40.3214L11.0049 40.475Z" fill="#E4761B"/>
<path d="M22.126 27.2444L19.5068 31.6724L28.8395 32.1355L28.508 20.9268L22.126 27.2444Z" fill="#E4761B"/>
<path fill-rule="evenodd" clip-rule="evenodd" d="M28.6378 20.5915C28.7539 20.6473 28.8306 20.773 28.8348 20.9141L29.1663 32.1229C29.1693 32.2244 29.1343 32.3227 29.0697 32.3941C29.0051 32.4654 28.9168 32.5035 28.826 32.499L19.4933 32.0358C19.376 32.03 19.2706 31.9541 19.2173 31.8372C19.164 31.7202 19.1711 31.5803 19.2358 31.4709L21.8549 27.0429C21.8707 27.0164 21.8894 26.9922 21.9107 26.9711L28.2928 20.6534C28.3873 20.5598 28.5218 20.5357 28.6378 20.5915ZM22.3752 27.4848L20.097 31.3363L28.503 31.7535L28.206 21.7128L22.3752 27.4848Z" fill="#E4761B"/>
<path d="M40.5761 27.2438L34.1111 20.7964L33.8956 32.1349L43.2118 31.6717L40.5761 27.2438Z" fill="#E4761B"/>
<path fill-rule="evenodd" clip-rule="evenodd" d="M33.9806 20.4626C34.0973 20.4058 34.2328 20.4301 34.3278 20.5248L40.7927 26.9722C40.8134 26.9928 40.8317 27.0164 40.8471 27.0422L43.4828 31.4701C43.5479 31.5796 43.5553 31.7197 43.502 31.8369C43.4488 31.9541 43.3433 32.0301 43.2258 32.036L33.9097 32.4991C33.8196 32.5036 33.7319 32.4662 33.6674 32.3958C33.6029 32.3253 33.5674 32.2282 33.5693 32.1274L33.7848 20.7889C33.7875 20.6467 33.8639 20.5193 33.9806 20.4626ZM34.4216 21.595L34.2286 31.7538L42.6202 31.3366L40.3274 27.4848L34.4216 21.595Z" fill="#E4761B"/>
<path d="M22.6562 47.475L28.2592 44.4181L23.4188 40.194L22.6562 47.475Z" fill="#E4761B"/>
<path fill-rule="evenodd" clip-rule="evenodd" d="M23.2932 39.8582C23.4019 39.8075 23.5267 39.8262 23.6195 39.9073L28.4599 44.1314C28.5485 44.2087 28.5952 44.3316 28.5835 44.4565C28.5718 44.5815 28.5033 44.6909 28.4023 44.746L22.7994 47.8029C22.6922 47.8614 22.5651 47.8498 22.4678 47.7728C22.3706 47.6957 22.3187 47.5655 22.3325 47.4332L23.0951 40.1521C23.1088 40.0213 23.1845 39.909 23.2932 39.8582ZM23.6753 40.8805L23.0495 46.8555L27.6474 44.3469L23.6753 40.8805Z" fill="#E4761B"/>
<path d="M34.4431 44.4181L40.0626 47.475L39.2835 40.194L34.4431 44.4181Z" fill="#E4761B"/>
<path fill-rule="evenodd" clip-rule="evenodd" d="M39.4079 39.8581C39.5165 39.9086 39.5924 40.0206 39.6063 40.1512L40.3854 47.4322C40.3996 47.5646 40.3479 47.6951 40.2507 47.7724C40.1535 47.8497 40.0263 47.8615 39.9191 47.8031L34.2995 44.7462C34.1984 44.6912 34.1298 44.5818 34.118 44.4568C34.1062 44.3317 34.1529 44.2088 34.2416 44.1314L39.082 39.9073C39.1747 39.8263 39.2993 39.8075 39.4079 39.8581ZM35.0546 44.3465L39.6671 46.8556L39.0276 40.8793L35.0546 44.3465Z" fill="#E4761B"/>
<path d="M40.063 47.4759L34.4435 44.419L34.8911 48.5134L34.8413 50.2364L40.063 47.4759Z" fill="#D7C1B3"/>
<path fill-rule="evenodd" clip-rule="evenodd" d="M34.2531 44.1218C34.3504 44.0443 34.4777 44.0324 34.5851 44.0908L40.2047 47.1478C40.3174 47.2091 40.3887 47.3373 40.388 47.4774C40.3873 47.6176 40.3147 47.7448 40.2014 47.8048L34.9797 50.5653C34.877 50.6196 34.7565 50.6102 34.6615 50.5406C34.5665 50.4709 34.5108 50.3511 34.5145 50.2242L34.5634 48.5292L34.1189 44.4626C34.1044 44.3301 34.1559 44.1994 34.2531 44.1218ZM34.8388 45.0393L35.2136 48.4687C35.2157 48.4873 35.2164 48.506 35.2159 48.5247L35.1834 49.6515L39.3084 47.4707L34.8388 45.0393Z" fill="#D7C1B3"/>
<path d="M22.6562 47.4759L27.8779 50.2364L27.8448 48.5134L28.2592 44.419L22.6562 47.4759Z" fill="#D7C1B3"/>
<path fill-rule="evenodd" clip-rule="evenodd" d="M28.4474 44.1206C28.5446 44.1973 28.5967 44.3271 28.5833 44.4593L28.1714 48.5294L28.2041 50.228C28.2065 50.3542 28.1503 50.4728 28.0555 50.5415C27.9607 50.6102 27.8409 50.6192 27.7387 50.5652L22.5171 47.8046C22.4038 47.7448 22.3312 47.6176 22.3305 47.4775C22.3297 47.3374 22.4008 47.2093 22.5134 47.1478L28.1164 44.0909C28.2233 44.0325 28.3502 44.044 28.4474 44.1206ZM23.4091 47.4701L27.5409 49.6544L27.519 48.5206C27.5187 48.5043 27.5194 48.488 27.521 48.4718L27.8687 45.0369L23.4091 47.4701Z" fill="#D7C1B3"/>
<path d="M27.9611 37.4892L23.2865 35.9515L26.5853 34.2655L27.9611 37.4892Z" fill="#233447"/>
<path fill-rule="evenodd" clip-rule="evenodd" d="M26.4495 33.9348C26.6114 33.8521 26.8027 33.9298 26.8794 34.1093L28.2552 37.333C28.3106 37.4628 28.2925 37.6169 28.2091 37.7263C28.1256 37.8357 27.9924 37.88 27.8689 37.8394L23.1943 36.3017C23.0638 36.2588 22.9709 36.1298 22.9612 35.9781C22.9515 35.8265 23.027 35.684 23.1508 35.6208L26.4495 33.9348ZM24.2154 35.878L27.3522 36.9098L26.429 34.7467L24.2154 35.878Z" fill="#233447"/>
<path d="M34.7415 37.4892L36.1173 34.2655L39.4327 35.9515L34.7415 37.4892Z" fill="#233447"/>
<path fill-rule="evenodd" clip-rule="evenodd" d="M35.8227 34.1093C35.8992 33.93 36.0901 33.8523 36.2519 33.9346L39.5673 35.6205C39.6913 35.6836 39.7671 35.8261 39.7575 35.9779C39.7478 36.1298 39.6547 36.2589 39.524 36.3018L34.8328 37.8395C34.7094 37.88 34.5763 37.8356 34.4929 37.7261C34.4095 37.6167 34.3914 37.4627 34.4468 37.333L35.8227 34.1093ZM36.2733 34.746L35.3494 36.9108L38.4996 35.8782L36.2733 34.746Z" fill="#233447"/>
<path d="M22.6564 47.4756L23.4521 39.9537L18.2635 40.1204L22.6564 47.4756Z" fill="#CD6116"/>
<path fill-rule="evenodd" clip-rule="evenodd" d="M23.6931 39.7071C23.757 39.7852 23.7874 39.8906 23.7763 39.9958L22.9806 47.5177C22.9646 47.6693 22.8657 47.7937 22.7329 47.8293C22.6001 47.8649 22.4615 47.8042 22.3857 47.6772L17.9928 40.322C17.927 40.2118 17.9199 40.0703 17.9743 39.9526C18.0288 39.8348 18.1361 39.7594 18.2546 39.7555L23.4431 39.5888C23.5379 39.5858 23.6291 39.6289 23.6931 39.7071ZM18.8622 40.465L22.4369 46.4505L23.0844 40.3294L18.8622 40.465Z" fill="#CD6116"/>
<path d="M39.267 39.9537L40.0627 47.4756L44.4555 40.1204L39.267 39.9537Z" fill="#CD6116"/>
<path fill-rule="evenodd" clip-rule="evenodd" d="M39.0263 39.7071C39.0902 39.6289 39.1815 39.5858 39.2762 39.5888L44.4647 39.7555C44.5832 39.7594 44.6906 39.8348 44.745 39.9526C44.7994 40.0703 44.7923 40.2118 44.7265 40.322L40.3336 47.6772C40.2578 47.8042 40.1192 47.8649 39.9864 47.8293C39.8536 47.7937 39.7548 47.6693 39.7387 47.5177L38.9431 39.9958C38.9319 39.8906 38.9623 39.7852 39.0263 39.7071ZM39.6349 40.3294L40.2824 46.4505L43.8571 40.465L39.6349 40.3294Z" fill="#CD6116"/>
<path d="M43.2124 31.6725L33.8962 32.1357L34.7582 37.49L36.1341 34.2663L39.4494 35.9522L43.2124 31.6725Z" fill="#CD6116"/>
<path fill-rule="evenodd" clip-rule="evenodd" d="M43.5097 31.5236C43.5643 31.6604 43.5384 31.8205 43.4445 31.9273L39.6816 36.2071C39.5856 36.3163 39.4387 36.3467 39.314 36.2833L36.2901 34.7456L35.0521 37.6463C34.9911 37.7891 34.8547 37.8716 34.7144 37.8505C34.5741 37.8295 34.462 37.7096 34.437 37.5539L33.575 32.1997C33.5583 32.0962 33.5824 31.9898 33.6411 31.9077C33.6998 31.8256 33.7874 31.7758 33.8813 31.7711L43.1975 31.3079C43.3313 31.3013 43.4552 31.3868 43.5097 31.5236ZM34.2827 32.4806L34.8994 36.3114L35.8394 34.1089C35.916 33.9295 36.1069 33.8518 36.2687 33.9341L39.3764 35.5144L42.3987 32.0771L34.2827 32.4806Z" fill="#CD6116"/>
<path d="M23.2871 35.9522L26.6024 34.2663L27.9617 37.49L28.8403 32.1357L19.5076 31.6725L23.2871 35.9522Z" fill="#CD6116"/>
<path fill-rule="evenodd" clip-rule="evenodd" d="M19.2099 31.524C19.2643 31.387 19.3883 31.3013 19.5222 31.3079L28.8549 31.7711C28.9491 31.7758 29.0368 31.8258 29.0955 31.9081C29.1542 31.9905 29.1781 32.0973 29.1611 32.2009L28.2826 37.5551C28.257 37.7108 28.1445 37.8303 28.004 37.8507C27.8636 37.8712 27.7274 37.7879 27.667 37.6447L26.4448 34.7463L23.4223 36.2833C23.2978 36.3466 23.1513 36.3164 23.0553 36.2076L19.2758 31.9279C19.1815 31.8212 19.1554 31.661 19.2099 31.524ZM20.3237 32.0772L23.3594 35.5147L26.4676 33.9341C26.6299 33.8515 26.8215 33.9301 26.8975 34.1104L27.8243 36.3083L28.4524 32.4806L20.3237 32.0772Z" fill="#CD6116"/>
<path d="M19.5074 31.6725L23.4196 40.1949L23.2869 35.9522L19.5074 31.6725Z" fill="#E4751F"/>
<path fill-rule="evenodd" clip-rule="evenodd" d="M19.3168 31.3767C19.4472 31.2712 19.6269 31.2879 19.7399 31.4159L23.5194 35.6956C23.5769 35.7607 23.6104 35.8475 23.6132 35.9388L23.7458 40.1815C23.7512 40.3521 23.6499 40.5039 23.5021 40.5469C23.3543 40.5898 23.1997 40.5124 23.13 40.3606L19.2179 31.8382C19.1444 31.6781 19.1864 31.4821 19.3168 31.3767ZM20.7668 33.616L23.0432 38.5751L22.966 36.1063L20.7668 33.616Z" fill="#E4751F"/>
<path d="M39.4497 35.9522L39.2839 40.1949L43.2126 31.6725L39.4497 35.9522Z" fill="#E4751F"/>
<path fill-rule="evenodd" clip-rule="evenodd" d="M43.4028 31.3767C43.5334 31.4823 43.5754 31.6787 43.5015 31.8388L39.5729 40.3612C39.5027 40.5134 39.3473 40.5904 39.1993 40.5465C39.0513 40.5026 38.9507 40.3494 38.9573 40.1785L39.1231 35.9358C39.1266 35.8458 39.1598 35.7605 39.2163 35.6963L42.9792 31.4166C43.0922 31.2881 43.2722 31.2712 43.4028 31.3767ZM39.7691 36.1073L39.6735 38.5517L41.937 33.6416L39.7691 36.1073Z" fill="#E4751F"/>
<path d="M28.8406 32.1349L27.962 37.4892L29.0561 43.8069L29.3047 35.4883L28.8406 32.1349Z" fill="#E4751F"/>
<path fill-rule="evenodd" clip-rule="evenodd" d="M28.8445 31.7708C29.0036 31.7733 29.1378 31.9037 29.1621 32.0794L29.6263 35.4328C29.6294 35.4553 29.6306 35.478 29.6299 35.5007L29.3813 43.8193C29.3757 44.0046 29.2465 44.1557 29.0811 44.1703C28.9157 44.1849 28.7669 44.0584 28.7354 43.8763L27.6413 37.5587C27.6336 37.5141 27.6334 37.4683 27.6407 37.4237L28.5193 32.0694C28.548 31.8945 28.6854 31.7683 28.8445 31.7708ZM28.2931 37.4876L28.8262 40.5655L28.9773 35.5105L28.8127 34.3214L28.2931 37.4876Z" fill="#E4751F"/>
<path d="M33.8962 32.1349L33.4486 35.4698L33.6475 43.8069L34.7582 37.4892L33.8962 32.1349Z" fill="#E4751F"/>
<path fill-rule="evenodd" clip-rule="evenodd" d="M33.8913 31.7708C34.0508 31.7682 34.1886 31.8951 34.2169 32.0706L35.0789 37.4249C35.086 37.4695 35.0857 37.5152 35.0779 37.5597L33.9673 43.8774C33.9352 44.0596 33.7857 44.1857 33.6201 44.1702C33.4545 44.1547 33.3259 44.0025 33.3215 43.8168L33.1226 35.4797C33.122 35.4584 33.1232 35.437 33.126 35.4159L33.5736 32.0811C33.5973 31.9047 33.7317 31.7734 33.8913 31.7708ZM33.9252 34.374L33.7751 35.4923L33.8948 40.5096L34.4263 37.4865L33.9252 34.374Z" fill="#E4751F"/>
<path d="M34.7574 37.4891L33.6467 43.8068L34.4424 44.4182L39.2828 40.1941L39.4486 35.9514L34.7574 37.4891Z" fill="#F6851B"/>
<path fill-rule="evenodd" clip-rule="evenodd" d="M39.6501 35.6648C39.7329 35.7373 39.7793 35.8501 39.7747 35.9675L39.609 40.2102C39.6048 40.3167 39.5591 40.4159 39.4839 40.4815L34.6435 44.7056C34.5314 44.8035 34.3754 44.8088 34.2582 44.7187L33.4625 44.1073C33.3554 44.025 33.3022 43.8794 33.3273 43.7368L34.4379 37.4191C34.4614 37.2857 34.5493 37.178 34.6661 37.1397L39.3573 35.602C39.4582 35.5689 39.5673 35.5923 39.6501 35.6648ZM35.0396 37.7767L34.0084 43.6424L34.4306 43.9669L38.9641 40.0105L39.1035 36.4446L35.0396 37.7767Z" fill="#F6851B"/>
<path d="M23.2865 35.9514L23.4191 40.1941L28.2595 44.4182L29.0552 43.8068L27.9611 37.4891L23.2865 35.9514Z" fill="#F6851B"/>
<path fill-rule="evenodd" clip-rule="evenodd" d="M23.0865 35.6637C23.1693 35.592 23.2779 35.5691 23.3784 35.6021L28.053 37.1398C28.1699 37.1783 28.2579 37.2864 28.2811 37.4201L29.3751 43.7378C29.3998 43.8801 29.3466 44.0252 29.2397 44.1073L28.4441 44.7187C28.3268 44.8088 28.1709 44.8035 28.0587 44.7056L23.2183 40.4815C23.1423 40.4152 23.0965 40.3147 23.0931 40.207L22.9605 35.9644C22.9569 35.8474 23.0037 35.7355 23.0865 35.6637ZM23.6279 36.4438L23.7395 40.0117L28.2716 43.9669L28.6944 43.642L27.6786 37.7763L23.6279 36.4438Z" fill="#F6851B"/>
<path d="M34.8403 50.2357L34.89 48.5127L34.4756 48.1051H28.2262L27.8449 48.5127L27.878 50.2357L22.6564 47.4752L24.4798 49.1426L28.1764 52.0143H34.5253L38.2385 49.1426L40.0619 47.4752L34.8403 50.2357Z" fill="#C0AD9E"/>
<path fill-rule="evenodd" clip-rule="evenodd" d="M22.3809 47.2801C22.4689 47.1245 22.647 47.0667 22.7959 47.1454L27.5409 49.654L27.5191 48.5202C27.5171 48.418 27.5536 48.3197 27.6196 48.249L28.0009 47.8414C28.0616 47.7766 28.1423 47.7404 28.2262 47.7404H34.4757C34.555 47.7404 34.6315 47.7727 34.691 47.8312L35.1055 48.2388C35.1786 48.3107 35.2191 48.4153 35.2159 48.5241L35.1834 49.6509L39.9226 47.1454C40.0715 47.0667 40.2496 47.1245 40.3376 47.2801C40.4256 47.4357 40.3959 47.6403 40.2685 47.7568L38.445 49.4243C38.4383 49.4304 38.4313 49.4363 38.4241 49.4419L34.7109 52.3136C34.6564 52.3557 34.5917 52.3783 34.5254 52.3783H28.1765C28.11 52.3783 28.0451 52.3556 27.9905 52.3131L24.2938 49.4414C24.2869 49.436 24.2801 49.4303 24.2735 49.4243L22.45 47.7568C22.3225 47.6403 22.2929 47.4357 22.3809 47.2801ZM25.0576 49.1473L28.2787 51.6496H34.4236L37.6554 49.1502L34.9798 50.5647C34.8771 50.619 34.7565 50.6096 34.6615 50.54C34.5666 50.4704 34.5109 50.3505 34.5145 50.2236L34.5593 48.6723L34.3527 48.4691H28.3571L28.174 48.6648L28.2041 50.2275C28.2065 50.3537 28.1503 50.4724 28.0555 50.5411C27.9607 50.6098 27.8409 50.6187 27.7387 50.5647L25.0576 49.1473Z" fill="#C0AD9E"/>
<path d="M34.4425 44.418L33.6468 43.8066H29.0551L28.2594 44.418L27.845 48.5125L28.2262 48.1049H34.4757L34.8901 48.5125L34.4425 44.418Z" fill="#161616"/>
<path fill-rule="evenodd" clip-rule="evenodd" d="M28.8703 43.5069C28.9247 43.4652 28.9891 43.4428 29.055 43.4428H33.6468C33.7128 43.4428 33.7772 43.4652 33.8315 43.5069L34.6272 44.1183C34.7042 44.1775 34.7548 44.2707 34.7661 44.3744L35.2137 48.4688C35.2301 48.6189 35.1618 48.7647 35.0422 48.8353C34.9225 48.9058 34.7763 48.8864 34.6747 48.7865L34.3526 48.4698H28.357L28.0703 48.7763C27.9711 48.8823 27.8231 48.9076 27.7002 48.8395C27.5772 48.7713 27.5056 48.6245 27.521 48.472L27.9354 44.3776C27.946 44.2727 27.9968 44.1781 28.0747 44.1183L28.8703 43.5069ZM29.1563 44.1715L28.5666 44.6247L28.2512 47.741H34.4756C34.4762 47.741 34.4767 47.741 34.4772 47.741L34.1367 44.6258L33.5455 44.1715H29.1563Z" fill="#161616"/>
<path d="M51.0863 22.7979L52.4953 15.2389L50.3901 8.21719L34.4432 21.4454L40.5766 27.2444L49.2463 30.079L51.1692 27.5778L50.3403 26.9109L51.6665 25.5584L50.6387 24.6691L51.9648 23.539L51.0863 22.7979Z" fill="#763D16"/>
<path fill-rule="evenodd" clip-rule="evenodd" d="M50.4869 7.86894C50.5865 7.90392 50.6651 7.99012 50.6983 8.10077L52.8035 15.1225C52.8219 15.1837 52.8254 15.2493 52.8136 15.3126L51.4467 22.6455L52.1603 23.2475C52.2417 23.3162 52.2897 23.4234 52.29 23.5374C52.2902 23.6514 52.2427 23.759 52.1616 23.8281L51.1729 24.6707L51.8651 25.2697C51.9412 25.3355 51.9874 25.4356 51.9913 25.543C51.9952 25.6505 51.9564 25.7544 51.8853 25.8269L50.8559 26.8768L51.3588 27.2815C51.4329 27.3411 51.4812 27.4328 51.492 27.5341C51.5028 27.6355 51.4751 27.7372 51.4155 27.8147L49.4926 30.3158C49.4092 30.4243 49.2767 30.4682 49.1538 30.428L40.4842 27.5934C40.4405 27.5791 40.3999 27.5548 40.3652 27.5219L34.2318 21.723C34.1558 21.6511 34.1133 21.5444 34.1165 21.4332C34.1197 21.322 34.1681 21.2185 34.248 21.1522L50.1949 7.92396C50.2787 7.85441 50.3873 7.83395 50.4869 7.86894ZM34.9669 21.4634L40.7336 26.9157L49.1351 29.6627L50.6895 27.6409L50.1489 27.2059C50.0692 27.1418 50.0196 27.0409 50.014 26.9313C50.0083 26.8217 50.0471 26.7151 50.1197 26.6411L51.1595 25.5806L50.4382 24.9566C50.3582 24.8873 50.3114 24.7803 50.3118 24.6671C50.3122 24.5539 50.3596 24.4474 50.4401 24.3787L51.4245 23.5398L50.889 23.0881C50.7883 23.0032 50.7405 22.8609 50.7662 22.7229L52.1573 15.2605L50.2228 8.80832L34.9669 21.4634Z" fill="#763D16"/>
<path d="M10.2235 15.2389L11.6325 22.7979L10.7374 23.539L12.0635 24.6691L11.0523 25.5584L12.3785 26.9109L11.5497 27.5778L13.456 30.079L22.1256 27.2444L28.259 21.4454L12.3122 8.21719L10.2235 15.2389Z" fill="#763D16"/>
<path fill-rule="evenodd" clip-rule="evenodd" d="M12.2145 7.86907C12.3142 7.8339 12.423 7.85432 12.5069 7.92396L28.4537 21.1522C28.5337 21.2185 28.5821 21.322 28.5853 21.4332C28.5885 21.5444 28.546 21.6511 28.47 21.723L22.3366 27.5219C22.3018 27.5548 22.2613 27.5791 22.2176 27.5934L13.548 30.428C13.4246 30.4684 13.2916 30.4239 13.2082 30.3146L11.3019 27.8135C11.2429 27.736 11.2155 27.6344 11.2265 27.5334C11.2374 27.4323 11.2857 27.341 11.3596 27.2815L11.8625 26.8768L10.833 25.8269C10.7623 25.7547 10.7235 25.6515 10.727 25.5445C10.7305 25.4375 10.7759 25.3376 10.8512 25.2714L11.5316 24.673L10.5402 23.8281C10.4587 23.7586 10.4111 23.6503 10.4118 23.5358C10.4125 23.4212 10.4614 23.3137 10.5438 23.2455L11.2713 22.6433L9.9048 15.3126C9.89307 15.2496 9.89645 15.1843 9.9146 15.1233L12.0033 8.10159C12.0362 7.99071 12.1148 7.90423 12.2145 7.86907ZM12.4799 8.80907L10.561 15.26L11.9521 22.7229C11.9781 22.8621 11.9292 23.0054 11.827 23.09L11.2804 23.5425L12.2616 24.3787C12.3418 24.4471 12.3892 24.553 12.39 24.6657C12.3907 24.7784 12.3448 24.8851 12.2656 24.9548L11.5566 25.5783L12.5987 26.6411C12.6712 26.7151 12.7101 26.8217 12.7044 26.9313C12.6987 27.0409 12.6491 27.1418 12.5694 27.2059L12.0277 27.6419L13.5676 29.6623L21.9682 26.9157L27.7349 21.4634L12.4799 8.80907Z" fill="#763D16"/>
<path d="M49.2459 30.0778L40.5763 27.2432L43.212 31.6711L39.2833 40.1935L44.4553 40.1194H52.1634L49.2459 30.0778Z" fill="#F6851B"/>
<path fill-rule="evenodd" clip-rule="evenodd" d="M40.313 27.0277C40.3942 26.9043 40.5357 26.8509 40.6672 26.8939L49.3368 29.7285C49.4403 29.7623 49.5221 29.8511 49.5554 29.9657L52.4729 40.0073C52.5051 40.1182 52.4879 40.2396 52.4265 40.334C52.3652 40.4283 52.2671 40.4841 52.1628 40.4841H44.4568L39.2869 40.5582C39.1724 40.5599 39.0656 40.4943 39.0054 40.3856C38.9452 40.2768 38.9405 40.1407 38.9929 40.027L42.8338 31.695L40.3042 27.4454C40.2283 27.3179 40.2319 27.151 40.313 27.0277ZM41.3424 27.8739L43.4828 31.4697C43.5483 31.5798 43.5553 31.7209 43.5012 31.8384L39.8209 39.8218L44.4546 39.7554L51.7142 39.7554L48.9884 30.3738L41.3424 27.8739Z" fill="#F6851B"/>
<path d="M22.1264 27.2432L13.4567 30.0778L10.5724 40.1194H18.264L23.4194 40.1935L19.5072 31.6711L22.1264 27.2432Z" fill="#F6851B"/>
<path fill-rule="evenodd" clip-rule="evenodd" d="M22.3883 27.0272C22.4695 27.1503 22.4734 27.3169 22.3979 27.4445L19.8839 31.6947L23.709 40.0276C23.7612 40.1413 23.7563 40.2772 23.6961 40.3858C23.6358 40.4945 23.5291 40.5599 23.4148 40.5582L18.2614 40.4841H10.572C10.4678 40.4841 10.3699 40.4285 10.3086 40.3345C10.2472 40.2404 10.2297 40.1192 10.2616 40.0084L13.1459 29.9668C13.179 29.8517 13.261 29.7624 13.3648 29.7285L22.0344 26.8939C22.1658 26.8509 22.3071 26.9042 22.3883 27.0272ZM13.7139 30.3736L11.019 39.7554H18.2678L22.8817 39.8218L19.2168 31.8378C19.163 31.7207 19.17 31.5803 19.2349 31.4706L21.3631 27.8726L13.7139 30.3736Z" fill="#F6851B"/>
<path d="M33.8953 32.1345L34.4423 21.4445L36.962 13.8299H25.7727L28.2592 21.4445L28.8394 32.1345L29.0383 35.5064L29.0549 43.8065H33.6467L33.6798 35.5064L33.8953 32.1345Z" fill="#F6851B"/>
<path fill-rule="evenodd" clip-rule="evenodd" d="M25.5054 13.6214C25.5664 13.524 25.6661 13.4659 25.7725 13.4659H36.9619C37.0685 13.4659 37.1684 13.5243 37.2294 13.6221C37.2903 13.7199 37.3046 13.8449 37.2676 13.9567L34.7649 21.5201L34.2204 32.1609L34.0056 35.5206L33.9725 43.8085C33.9717 44.0091 33.826 44.1713 33.6465 44.1713H29.0547C28.875 44.1713 28.7291 44.0086 28.7287 43.8077L28.7122 35.5192L28.5139 32.1589L28.5138 32.157L27.9365 21.5199L25.4663 13.9552C25.4298 13.8435 25.4444 13.7189 25.5054 13.6214ZM26.2386 14.1947L28.5653 21.32C28.5761 21.353 28.5826 21.3877 28.5845 21.4228L29.1645 32.111L29.1647 32.1129L29.3635 35.4829C29.3639 35.4906 29.3642 35.4983 29.3642 35.506L29.38 43.4425H33.3219L33.3536 35.5052C33.3537 35.4971 33.354 35.489 33.3545 35.4809L33.5698 32.1115L34.1167 21.4241C34.1186 21.388 34.1252 21.3524 34.1364 21.3185L36.4937 14.1947H26.2386Z" fill="#F6851B"/>
</svg>
