<svg width="60" height="61" viewBox="0 0 60 61" fill="none" xmlns="http://www.w3.org/2000/svg">
<g clip-path="url(#clip0_2147_16023)">
<path d="M29.9561 60.0733C24.0317 60.0739 18.2402 58.3176 13.3139 55.0264C8.38772 51.7354 4.54809 47.0573 2.28064 41.584C0.0131911 36.1105 -0.580241 30.0878 0.575395 24.277C1.73103 18.4664 4.58383 13.129 8.77301 8.93969C11.55 6.13826 14.853 3.91291 18.4924 2.39141C22.1318 0.869918 26.0357 0.0822416 29.9803 0.0736039C33.9249 0.0649662 37.8324 0.835538 41.4784 2.34108C45.1243 3.84661 48.4371 6.05748 51.2263 8.84673C54.0156 11.636 56.2264 14.9487 57.732 18.5947C59.2374 22.2407 60.0081 26.148 59.9994 30.0927C59.9908 34.0373 59.2031 37.9414 57.6816 41.5806C56.1602 45.22 53.9347 48.523 51.1333 51.3C48.3589 54.0898 45.0585 56.3018 41.4234 57.8078C37.7884 59.3138 33.8908 60.0838 29.9561 60.0733ZM37.9237 21.1187L38.1664 22.0534L43.0774 39.8548H47.0732L40.3695 16.7696L40.2064 16.142H36.7211L36.6403 16.2678L33.3799 22.0579L30.0371 27.9962L29.9561 28.1383L29.9188 27.9962L29.5069 26.47L28.3656 22.0579L28.2428 21.619L26.9788 16.7681L26.8155 16.1405H23.3364L23.2556 16.2663L19.9967 22.0579L16.6538 27.9962L13.3319 33.9135L9.98912 39.8548H13.9819L17.3248 33.9165L20.6676 28.0007L23.9895 22.0624L24.5391 21.1217L24.7832 22.0624L25.8017 25.9727L27.0671 30.8432L27.5074 32.5041L26.7137 33.9165L23.3664 39.8548H27.3593L28.77 37.3491L31.2217 32.9983L34.0447 28.0007L37.3667 22.0624L37.9148 21.1262L37.9237 21.1187Z" fill="#245EC6"/>
</g>
<defs>
<clipPath id="clip0_2147_16023">
<rect width="60" height="60" fill="white" transform="translate(0 0.0735321)"/>
</clipPath>
</defs>
</svg>
