<svg width="128" height="41" viewBox="0 0 128 41" fill="none" xmlns="http://www.w3.org/2000/svg">
<path d="M0.066391 20.5C0.066391 13.6241 5.64038 8.05016 12.5162 8.05016C19.3921 8.05016 24.9661 13.6241 24.9661 20.5C24.9661 27.3759 19.3921 32.9498 12.5162 32.9498C5.64038 32.9498 0.066391 27.3759 0.066391 20.5Z" fill="#62718A"/>
<path d="M15.1682 28.2694L13.4055 26.5068C12.905 26.0062 12.0956 26.0062 11.6003 26.5068L9.83769 28.2694C9.32115 28.7859 8.47978 28.7859 7.96324 28.2694L7.11122 27.4174L9.81107 24.7175C11.2968 23.2318 13.7038 23.2318 15.1895 24.7175L17.8893 27.4174L17.0373 28.2694C16.5261 28.7859 15.69 28.7859 15.1682 28.2694Z" fill="white"/>
<path d="M5.59887 25.8997L4.74685 25.0477C4.23031 24.5311 4.23031 23.6898 4.74685 23.1732L6.50947 21.4106C7.01004 20.91 7.01004 20.1006 6.50947 19.6054L4.74685 17.8427C4.23031 17.3262 4.23031 16.4848 4.74685 15.9683L5.59887 15.1163L8.29872 17.8161C9.78444 19.3018 9.78444 21.7088 8.29872 23.1945L5.59887 25.8997Z" fill="white"/>
<path d="M12.5269 17.3954C11.5524 17.3954 10.5779 17.028 9.8377 16.2825L7.13785 13.5826L7.98987 12.7306C8.50641 12.2141 9.34778 12.2141 9.86432 12.7306L11.6269 14.4932C12.1222 14.9885 12.9369 14.9885 13.4322 14.4932L15.1948 12.7306C15.7113 12.2141 16.5527 12.2141 17.0692 12.7306L17.9213 13.5826L15.2214 16.2825C14.4759 17.0174 13.5014 17.3954 12.5269 17.3954Z" fill="white"/>
<path d="M19.4336 25.8784L16.7338 23.1785C15.248 21.6928 15.248 19.2859 16.7338 17.8001L19.4336 15.1003L20.2856 15.9523C20.8022 16.4689 20.8022 17.3102 20.2856 17.8268L18.523 19.5894C18.0224 20.09 18.0224 20.8994 18.523 21.3946L20.2856 23.1572C20.8022 23.6738 20.8022 24.5152 20.2856 25.0317L19.4336 25.8784Z" fill="white"/>
<path d="M29.9031 16.0759V9.71158H32.1716C32.6668 9.71158 33.077 9.8017 33.4022 9.98194C33.7275 10.1622 33.9709 10.4087 34.1325 10.7215C34.2941 11.0323 34.3749 11.3824 34.3749 11.7719C34.3749 12.1635 34.2931 12.5157 34.1294 12.8285C33.9678 13.1392 33.7233 13.3858 33.396 13.5681C33.0708 13.7483 32.6616 13.8385 32.1685 13.8385H30.6085V13.0243H32.0815C32.3943 13.0243 32.6481 12.9704 32.8429 12.8627C33.0376 12.7529 33.1806 12.6037 33.2717 12.4152C33.3629 12.2267 33.4084 12.0122 33.4084 11.7719C33.4084 11.5316 33.3629 11.3182 33.2717 11.1317C33.1806 10.9453 33.0366 10.7992 32.8398 10.6936C32.645 10.5879 32.3881 10.5351 32.0691 10.5351H30.8633V16.0759H29.9031Z" fill="#62718A"/>
<path d="M37.5915 16.1722C37.144 16.1722 36.7535 16.0697 36.4199 15.8646C36.0864 15.6595 35.8274 15.3726 35.643 15.0038C35.4586 14.635 35.3664 14.2041 35.3664 13.711C35.3664 13.2159 35.4586 12.7829 35.643 12.4121C35.8274 12.0412 36.0864 11.7533 36.4199 11.5482C36.7535 11.3431 37.144 11.2405 37.5915 11.2405C38.039 11.2405 38.4295 11.3431 38.763 11.5482C39.0966 11.7533 39.3556 12.0412 39.5399 12.4121C39.7243 12.7829 39.8165 13.2159 39.8165 13.711C39.8165 14.2041 39.7243 14.635 39.5399 15.0038C39.3556 15.3726 39.0966 15.6595 38.763 15.8646C38.4295 16.0697 38.039 16.1722 37.5915 16.1722ZM37.5946 15.3922C37.8846 15.3922 38.1249 15.3156 38.3155 15.1623C38.5061 15.009 38.647 14.8049 38.7382 14.5501C38.8314 14.2953 38.878 14.0145 38.878 13.7079C38.878 13.4034 38.8314 13.1237 38.7382 12.8689C38.647 12.612 38.5061 12.4059 38.3155 12.2505C38.1249 12.0951 37.8846 12.0174 37.5946 12.0174C37.3025 12.0174 37.0601 12.0951 36.8674 12.2505C36.6768 12.4059 36.5349 12.612 36.4417 12.8689C36.3505 13.1237 36.3049 13.4034 36.3049 13.7079C36.3049 14.0145 36.3505 14.2953 36.4417 14.5501C36.5349 14.8049 36.6768 15.009 36.8674 15.1623C37.0601 15.3156 37.3025 15.3922 37.5946 15.3922Z" fill="#62718A"/>
<path d="M41.9579 16.0759L40.5532 11.3027H41.5135L42.4489 14.808H42.4955L43.434 11.3027H44.3942L45.3265 14.7925H45.3731L46.3023 11.3027H47.2625L45.861 16.0759H44.9132L43.9436 12.6296H43.8721L42.9026 16.0759H41.9579Z" fill="#62718A"/>
<path d="M50.2709 16.1722C49.8006 16.1722 49.3956 16.0718 49.0558 15.8708C48.7181 15.6678 48.4571 15.3829 48.2727 15.0162C48.0904 14.6475 47.9992 14.2155 47.9992 13.7204C47.9992 13.2314 48.0904 12.8005 48.2727 12.4276C48.4571 12.0547 48.714 11.7636 49.0434 11.5544C49.3749 11.3451 49.7623 11.2405 50.2056 11.2405C50.4749 11.2405 50.736 11.2851 50.9887 11.3741C51.2415 11.4632 51.4683 11.6031 51.6693 11.7937C51.8703 11.9843 52.0287 12.2318 52.1448 12.5364C52.2608 12.8388 52.3188 13.2066 52.3188 13.6396V13.969H48.5244V13.2729H51.4083C51.4083 13.0284 51.3585 12.8119 51.2591 12.6234C51.1597 12.4328 51.0198 12.2826 50.8396 12.1728C50.6614 12.063 50.4522 12.0081 50.2118 12.0081C49.9508 12.0081 49.7229 12.0723 49.5282 12.2008C49.3355 12.3271 49.1863 12.4929 49.0807 12.698C48.9771 12.901 48.9253 13.1216 48.9253 13.3599V13.9037C48.9253 14.2228 48.9812 14.4942 49.0931 14.7179C49.2071 14.9416 49.3655 15.1126 49.5686 15.2306C49.7716 15.3467 50.0088 15.4047 50.2802 15.4047C50.4563 15.4047 50.6169 15.3798 50.7619 15.3301C50.9069 15.2783 51.0322 15.2016 51.1379 15.1001C51.2436 14.9986 51.3244 14.8733 51.3803 14.7241L52.2597 14.8826C52.1893 15.1416 52.0629 15.3684 51.8806 15.5632C51.7004 15.7558 51.4735 15.906 51.2001 16.0138C50.9287 16.1194 50.6189 16.1722 50.2709 16.1722Z" fill="#62718A"/>
<path d="M53.5644 16.0759V11.3027H54.4625V12.0609H54.5122C54.5992 11.804 54.7525 11.602 54.9721 11.4549C55.1938 11.3058 55.4445 11.2312 55.7241 11.2312C55.7822 11.2312 55.8505 11.2333 55.9292 11.2374C56.01 11.2415 56.0732 11.2467 56.1188 11.2529V12.1417C56.0815 12.1314 56.0152 12.12 55.9199 12.1075C55.8246 12.093 55.7293 12.0858 55.634 12.0858C55.4144 12.0858 55.2186 12.1324 55.0467 12.2256C54.8768 12.3168 54.7421 12.4442 54.6427 12.6078C54.5433 12.7694 54.4935 12.9538 54.4935 13.161V16.0759H53.5644Z" fill="#62718A"/>
<path d="M59.0239 16.1722C58.5536 16.1722 58.1485 16.0718 57.8088 15.8708C57.4711 15.6678 57.2101 15.3829 57.0257 15.0162C56.8434 14.6475 56.7522 14.2155 56.7522 13.7204C56.7522 13.2314 56.8434 12.8005 57.0257 12.4276C57.2101 12.0547 57.467 11.7636 57.7964 11.5544C58.1278 11.3451 58.5152 11.2405 58.9586 11.2405C59.2279 11.2405 59.489 11.2851 59.7417 11.3741C59.9945 11.4632 60.2213 11.6031 60.4223 11.7937C60.6232 11.9843 60.7817 12.2318 60.8977 12.5364C61.0137 12.8388 61.0718 13.2066 61.0718 13.6396V13.969H57.2774V13.2729H60.1612C60.1612 13.0284 60.1115 12.8119 60.0121 12.6234C59.9126 12.4328 59.7728 12.2826 59.5925 12.1728C59.4144 12.063 59.2051 12.0081 58.9648 12.0081C58.7038 12.0081 58.4759 12.0723 58.2811 12.2008C58.0885 12.3271 57.9393 12.4929 57.8336 12.698C57.7301 12.901 57.6783 13.1216 57.6783 13.3599V13.9037C57.6783 14.2228 57.7342 14.4942 57.8461 14.7179C57.96 14.9416 58.1185 15.1126 58.3215 15.2306C58.5246 15.3467 58.7618 15.4047 59.0332 15.4047C59.2093 15.4047 59.3698 15.3798 59.5149 15.3301C59.6599 15.2783 59.7852 15.2016 59.8909 15.1001C59.9965 14.9986 60.0773 14.8733 60.1333 14.7241L61.0127 14.8826C60.9423 15.1416 60.8159 15.3684 60.6336 15.5632C60.4533 15.7558 60.2265 15.906 59.953 16.0138C59.6816 16.1194 59.3719 16.1722 59.0239 16.1722Z" fill="#62718A"/>
<path d="M64.1042 16.1691C63.7189 16.1691 63.375 16.0707 63.0725 15.8739C62.7721 15.675 62.5359 15.3922 62.364 15.0255C62.1941 14.6568 62.1091 14.2145 62.1091 13.6986C62.1091 13.1828 62.1951 12.7415 62.3671 12.3748C62.5411 12.0081 62.7793 11.7274 63.0818 11.5326C63.3843 11.3379 63.7272 11.2405 64.1104 11.2405C64.4067 11.2405 64.6449 11.2902 64.8252 11.3897C65.0075 11.487 65.1484 11.601 65.2478 11.7315C65.3493 11.862 65.428 11.977 65.484 12.0765H65.5399V9.71158H66.4691V16.0759H65.5617V15.3332H65.484C65.428 15.4347 65.3472 15.5507 65.2416 15.6812C65.138 15.8118 64.995 15.9257 64.8127 16.0231C64.6304 16.1205 64.3942 16.1691 64.1042 16.1691ZM64.3093 15.3767C64.5766 15.3767 64.8024 15.3063 64.9868 15.1654C65.1732 15.0224 65.3141 14.8246 65.4094 14.5718C65.5068 14.3191 65.5554 14.0249 65.5554 13.6893C65.5554 13.3578 65.5078 13.0678 65.4125 12.8192C65.3172 12.5706 65.1774 12.3769 64.993 12.238C64.8086 12.0992 64.5807 12.0298 64.3093 12.0298C64.0296 12.0298 63.7966 12.1023 63.6101 12.2474C63.4236 12.3924 63.2828 12.5902 63.1875 12.8409C63.0942 13.0916 63.0476 13.3744 63.0476 13.6893C63.0476 14.0083 63.0953 14.2953 63.1906 14.5501C63.2859 14.8049 63.4268 15.0069 63.6132 15.1561C63.8017 15.3032 64.0338 15.3767 64.3093 15.3767Z" fill="#62718A"/>
<path d="M70.6151 16.0759V9.71158H71.5442V12.0765H71.6002C71.654 11.977 71.7317 11.862 71.8332 11.7315C71.9347 11.601 72.0756 11.487 72.2559 11.3897C72.4361 11.2902 72.6743 11.2405 72.9706 11.2405C73.3559 11.2405 73.6999 11.3379 74.0023 11.5326C74.3048 11.7274 74.542 12.0081 74.714 12.3748C74.888 12.7415 74.975 13.1828 74.975 13.6986C74.975 14.2145 74.889 14.6568 74.7171 15.0255C74.5451 15.3922 74.3089 15.675 74.0085 15.8739C73.7081 16.0707 73.3653 16.1691 72.9799 16.1691C72.6899 16.1691 72.4527 16.1205 72.2683 16.0231C72.086 15.9257 71.943 15.8118 71.8394 15.6812C71.7359 15.5507 71.6561 15.4347 71.6002 15.3332H71.5225V16.0759H70.6151ZM71.5256 13.6893C71.5256 14.0249 71.5743 14.3191 71.6716 14.5718C71.769 14.8246 71.9099 15.0224 72.0943 15.1654C72.2787 15.3063 72.5045 15.3767 72.7717 15.3767C73.0493 15.3767 73.2814 15.3032 73.4678 15.1561C73.6543 15.0069 73.7952 14.8049 73.8905 14.5501C73.9878 14.2953 74.0365 14.0083 74.0365 13.6893C74.0365 13.3744 73.9889 13.0916 73.8936 12.8409C73.8003 12.5902 73.6595 12.3924 73.4709 12.2474C73.2845 12.1023 73.0514 12.0298 72.7717 12.0298C72.5024 12.0298 72.2745 12.0992 72.088 12.238C71.9037 12.3769 71.7638 12.5706 71.6685 12.8192C71.5732 13.0678 71.5256 13.3578 71.5256 13.6893Z" fill="#62718A"/>
<path d="M76.658 17.8659C76.5192 17.8659 76.3928 17.8545 76.2789 17.8317C76.1649 17.811 76.08 17.7882 76.024 17.7633L76.2478 17.002C76.4177 17.0476 76.5689 17.0672 76.7015 17.061C76.8341 17.0548 76.9511 17.0051 77.0526 16.9119C77.1562 16.8186 77.2474 16.6664 77.3261 16.455L77.4411 16.1381L75.6946 11.3027H76.6891L77.8979 15.0069H77.9476L79.1565 11.3027H80.154L78.1869 16.713C78.0958 16.9616 77.9797 17.1719 77.8389 17.3438C77.698 17.5178 77.5302 17.6483 77.3354 17.7354C77.1407 17.8224 76.9149 17.8659 76.658 17.8659Z" fill="#62718A"/>
<path d="M31.6387 20.8913C31.8083 20.8913 31.852 20.935 31.9013 21.0006L34.1057 23.9407H34.1823L36.3102 21.017C36.3704 20.9405 36.4634 20.8968 36.5837 20.8968H37.9184C38.0552 20.8968 38.1044 21.017 38.0387 21.0935L35.0521 24.8424L38.3779 29.0176C38.4545 29.1269 38.4107 29.2308 38.2685 29.2308H36.9228C36.8025 29.2308 36.6931 29.187 36.6165 29.0777L34.1331 25.7441H34.0565L31.6879 29.0668C31.5949 29.1761 31.491 29.2362 31.3652 29.2362H30.0305C29.9211 29.2362 29.8609 29.1433 29.9375 29.0395L33.2141 24.8752L30.2602 21.1263C30.2001 21.017 30.2274 20.8968 30.3696 20.8968H31.6387V20.8913Z" fill="#62718A"/>
<path d="M44.8433 20.8913C46.6649 20.8913 47.9832 22.2083 47.9832 23.8751C47.9832 25.5911 46.6649 26.8754 44.8433 26.8754H42.1958V29.0176C42.1958 29.1542 42.1356 29.2308 42.0098 29.2308H41.0142C40.8775 29.2308 40.8009 29.1542 40.8009 29.0176V21.1099C40.8009 20.9733 40.8775 20.8968 41.0142 20.8968H44.8433V20.8913ZM44.8433 25.5747C45.9592 25.5747 46.5883 24.8534 46.5883 23.8751C46.5883 22.9133 45.9592 22.1919 44.8433 22.1919H42.1958V25.5747H44.8433Z" fill="#62718A"/>
<path d="M50.9099 27.3181C51.4624 27.3181 51.9383 27.7772 51.9383 28.3291C51.9383 28.8811 51.4624 29.3565 50.9099 29.3565C50.3575 29.3565 49.898 28.8811 49.898 28.3291C49.898 27.7772 50.3575 27.3181 50.9099 27.3181Z" fill="#62718A"/>
<path d="M61.1722 29.2308C61.0628 29.2308 60.9753 29.187 60.9096 29.0941L58.1691 25.6348L56.1342 22.8368L56.0576 22.8532L56.1506 25.3343V29.0231C56.1506 29.1597 56.0741 29.2362 55.9209 29.2362H54.9581C54.8378 29.2362 54.7722 29.1597 54.7722 29.0231V21.1099C54.7722 20.9733 54.8323 20.8968 54.9691 20.8968H55.8717C56.0248 20.8968 56.1452 20.9405 56.2217 21.0498L59.1647 24.7222L61.0026 27.2634L61.0792 27.247L60.9698 24.7823V21.1099C60.9698 20.9733 61.0464 20.8968 61.1831 20.8968H62.1459C62.2826 20.8968 62.3428 20.9733 62.3428 21.1099V29.0231C62.3428 29.1597 62.2826 29.2362 62.1459 29.2362H61.1722V29.2308Z" fill="#62718A"/>
<path d="M71.6471 20.8913C71.7565 20.8913 71.8605 20.9842 71.8605 21.1044V21.9788C71.8605 22.0881 71.7511 22.1756 71.6471 22.1756H66.8061V24.2413H71.215C71.3517 24.2413 71.4283 24.3178 71.4283 24.4544V25.3288C71.4283 25.4654 71.3517 25.5255 71.215 25.5255H66.8061V27.9301H71.8003C71.937 27.9301 71.9972 27.9902 71.9972 28.1159V29.0176C71.9972 29.1542 71.937 29.2308 71.8003 29.2308H65.6136C65.4768 29.2308 65.4167 29.1542 65.4167 29.0176V21.1099C65.4167 20.9733 65.4768 20.8968 65.6136 20.8968H71.6471V20.8913Z" fill="#62718A"/>
<path d="M81.5699 20.8913C81.7066 20.8913 81.7832 20.9678 81.7832 21.1044V21.9788C81.7832 22.1154 81.7066 22.1919 81.5699 22.1919H78.7363V29.0176C78.7363 29.1269 78.6598 29.2308 78.523 29.2308H77.5603C77.4235 29.2308 77.3469 29.1542 77.3469 29.0176V22.1919H74.5134C74.3767 22.1919 74.3001 22.1154 74.3001 21.9788V21.1044C74.3001 20.9678 74.3767 20.8913 74.5134 20.8913H81.5699Z" fill="#62718A"/>
<path d="M85.1416 20.8913C85.2783 20.8913 85.3549 20.935 85.3877 21.0443L87.3187 27.6077H87.3953L89.2496 21.0443C89.2824 20.935 89.359 20.8913 89.463 20.8913H90.4913C90.6007 20.8913 90.6773 20.935 90.7047 21.0443L92.6028 27.6077H92.6794L94.5939 21.0607C94.6268 20.9514 94.7033 20.8913 94.8073 20.8913H95.9396C96.0763 20.8913 96.1256 20.9514 96.0763 21.088L93.4726 29.0449C93.4288 29.1652 93.3358 29.2308 93.21 29.2308H91.9409C91.8206 29.2308 91.744 29.1706 91.6948 29.034L90.01 23.1756H89.9334L88.265 29.0504C88.2322 29.1706 88.1556 29.2362 88.0517 29.2362H86.7662C86.6294 29.2362 86.5364 29.1761 86.4927 29.0504L83.8725 21.0607C83.8287 20.9514 83.8725 20.8913 84.0092 20.8913H85.1416Z" fill="#62718A"/>
<path d="M102.466 20.771C104.884 20.771 106.771 22.5744 106.771 25.0719C106.771 27.553 104.889 29.3564 102.466 29.3564C100.048 29.3564 98.1608 27.553 98.1608 25.0719C98.1608 22.5744 100.042 20.771 102.466 20.771ZM99.5666 25.0719C99.5666 26.7879 100.748 28.0558 102.46 28.0558C104.178 28.0558 105.354 26.7879 105.354 25.0719C105.354 23.345 104.172 22.0717 102.46 22.0717C100.748 22.0717 99.5666 23.3395 99.5666 25.0719Z" fill="#62718A"/>
<path d="M113.57 20.8913C115.391 20.8913 116.726 22.2083 116.726 23.8751C116.726 25.0392 116.097 26.0174 115.134 26.5092L116.529 28.9903C116.606 29.1269 116.529 29.2362 116.359 29.2362H115.244C115.107 29.2362 114.997 29.1269 114.937 29.0231L113.821 26.8644C113.778 26.8808 113.701 26.8808 113.608 26.8808H110.928V29.0231C110.928 29.1597 110.867 29.2362 110.731 29.2362H109.768C109.598 29.2362 109.538 29.1269 109.538 29.0231V21.1099C109.538 20.9733 109.615 20.8968 109.752 20.8968H113.57V20.8913ZM113.57 25.5747C114.686 25.5747 115.331 24.8534 115.331 23.8751C115.331 22.9133 114.686 22.1919 113.57 22.1919H110.922V25.5747H113.57Z" fill="#62718A"/>
<path d="M120.813 20.8913C120.949 20.8913 121.026 20.9678 121.026 21.1044V24.7768L124.975 21.0607C125.085 20.9514 125.238 20.8913 125.418 20.8913H126.797C126.934 20.8913 126.994 21.0279 126.89 21.1372L123.214 24.4872L127.087 28.9684C127.196 29.0777 127.13 29.2308 126.966 29.2308H125.741C125.555 29.2308 125.402 29.1706 125.282 29.034L122.202 25.3944L121.02 26.3453V29.0231C121.02 29.1597 120.944 29.2362 120.807 29.2362H119.844C119.708 29.2362 119.631 29.1597 119.631 29.0231V21.1099C119.631 20.9733 119.708 20.8968 119.844 20.8968H120.813V20.8913Z" fill="#62718A"/>
</svg>
