<svg width="16" height="16" viewBox="0 0 16 16" fill="none" xmlns="http://www.w3.org/2000/svg">
<path d="M13.3333 8C13.3333 7.26467 12.7353 6.66667 12 6.66667H11.3333V4.66667C11.3333 2.82867 9.838 1.33334 8 1.33334C6.162 1.33334 4.66666 2.82867 4.66666 4.66667V6.66667H4C3.26466 6.66667 2.66666 7.26467 2.66666 8V13.3333C2.66666 14.0687 3.26466 14.6667 4 14.6667H12C12.7353 14.6667 13.3333 14.0687 13.3333 13.3333V8ZM6 4.66667C6 3.564 6.89733 2.66667 8 2.66667C9.10266 2.66667 10 3.564 10 4.66667V6.66667H6V4.66667Z" fill="#62718A"/>
</svg>
