<svg width="13" height="14" viewBox="0 0 13 14" fill="none" xmlns="http://www.w3.org/2000/svg">
<path d="M11.4 3.69473H1.4V3.29473L10.2 2.59073V3.29473H11.4V2.09473C11.4 1.21473 10.6872 0.597134 9.8168 0.721134L1.784 1.86833C0.912797 1.99313 0.199997 2.81473 0.199997 3.69473V11.6947C0.199997 12.1191 0.368568 12.526 0.668626 12.8261C0.968684 13.1262 1.37565 13.2947 1.8 13.2947H11.4C11.8243 13.2947 12.2313 13.1262 12.5314 12.8261C12.8314 12.526 13 12.1191 13 11.6947V5.29473C13 4.87039 12.8314 4.46342 12.5314 4.16336C12.2313 3.8633 11.8243 3.69473 11.4 3.69473ZM10.2 9.29953C10.0424 9.29948 9.88627 9.26838 9.74065 9.20801C9.59503 9.14763 9.46273 9.05917 9.3513 8.94766C9.23987 8.83616 9.1515 8.7038 9.09122 8.55814C9.03094 8.41248 8.99994 8.25637 9 8.09873C9.00005 7.9411 9.03115 7.78501 9.09153 7.63939C9.1519 7.49377 9.24036 7.36147 9.35187 7.25004C9.46337 7.13861 9.59573 7.05023 9.74139 6.98996C9.88705 6.92968 10.0432 6.89868 10.2008 6.89873C10.5192 6.89884 10.8244 7.02541 11.0495 7.25061C11.2745 7.4758 11.4009 7.78117 11.4008 8.09953C11.4007 8.4179 11.2741 8.72318 11.0489 8.94823C10.8237 9.17327 10.5184 9.29964 10.2 9.29953Z" fill="#62718A"/>
</svg>
