<svg width="24" height="24" viewBox="0 0 24 24" fill="none" xmlns="http://www.w3.org/2000/svg">
<circle cx="12" cy="12" r="10.9091" fill="url(#paint0_linear_2007_12825)"/>
<g clip-path="url(#clip0_2007_12825)">
<path d="M14.1172 18.2346L12.7028 16.8201C12.3012 16.4184 11.6517 16.4184 11.2543 16.8201L9.83985 18.2346C9.42536 18.6491 8.75021 18.6491 8.33572 18.2346L7.65202 17.5508L9.81849 15.3843C11.0107 14.192 12.9421 14.192 14.1343 15.3843L16.3008 17.5508L15.6171 18.2346C15.2069 18.6491 14.536 18.6491 14.1172 18.2346Z" fill="white"/>
<path d="M6.43817 16.3327L5.75447 15.649C5.33998 15.2345 5.33998 14.5593 5.75447 14.1448L7.16887 12.7303C7.57054 12.3286 7.57054 11.6791 7.16887 11.2817L5.75447 9.86722C5.33998 9.45271 5.33998 8.77753 5.75447 8.36302L6.43817 7.67929L8.60463 9.84585C9.79683 11.0381 9.79683 12.9696 8.60463 14.1619L6.43817 16.3327Z" fill="white"/>
<path d="M11.9973 9.50885C11.2153 9.50885 10.4334 9.21399 9.83939 8.61573L7.67293 6.44917L8.35662 5.76544C8.77112 5.35093 9.44627 5.35093 9.86076 5.76544L11.2752 7.1799C11.6726 7.57732 12.3263 7.57732 12.7237 7.1799L14.1381 5.76544C14.5526 5.35093 15.2278 5.35093 15.6423 5.76544L16.326 6.44917L14.1595 8.61573C13.5613 9.20545 12.7793 9.50885 11.9973 9.50885Z" fill="white"/>
<path d="M17.5397 16.3156L15.3732 14.1491C14.181 12.9568 14.181 11.0253 15.3732 9.83304L17.5397 7.66647L18.2234 8.3502C18.6379 8.76471 18.6379 9.43989 18.2234 9.8544L16.809 11.2689C16.4073 11.6706 16.4073 12.3201 16.809 12.7175L18.2234 14.132C18.6379 14.5465 18.6379 15.2217 18.2234 15.6362L17.5397 16.3156Z" fill="white"/>
</g>
<defs>
<linearGradient id="paint0_linear_2007_12825" x1="8.16708" y1="4.03931" x2="38.5356" y2="-12.4717" gradientUnits="userSpaceOnUse">
<stop stop-color="#E22440"/>
</linearGradient>
<clipPath id="clip0_2007_12825">
<rect width="13.0909" height="13.0909" fill="white" transform="translate(5.45454 5.45456)"/>
</clipPath>
</defs>
</svg>
