<svg width="14" height="14" viewBox="0 0 14 14" fill="none" xmlns="http://www.w3.org/2000/svg">
<path d="M2.57833 12.0044C2.4974 12.0042 2.41738 11.9873 2.34336 11.9545C2.26935 11.9218 2.20296 11.874 2.14841 11.8142C2.09288 11.7549 2.0505 11.6846 2.02406 11.6078C1.99762 11.531 1.98772 11.4495 1.99499 11.3685L2.13791 9.79705L8.74008 3.19722L10.8033 5.25988L4.20291 11.8591L2.63141 12.002C2.61376 12.0037 2.59605 12.0045 2.57833 12.0044V12.0044ZM11.2152 4.84747L9.15249 2.7848L10.3897 1.54755C10.4439 1.49331 10.5083 1.45029 10.5791 1.42093C10.6499 1.39157 10.7258 1.37646 10.8025 1.37646C10.8791 1.37646 10.955 1.39157 11.0258 1.42093C11.0966 1.45029 11.161 1.49331 11.2152 1.54755L12.4524 2.7848C12.5066 2.83897 12.5497 2.90331 12.579 2.97413C12.6084 3.04494 12.6235 3.12085 12.6235 3.19751C12.6235 3.27417 12.6084 3.35007 12.579 3.42089C12.5497 3.4917 12.5066 3.55604 12.4524 3.61022L11.2157 4.84688L11.2152 4.84747V4.84747Z" fill="#62718A"/>
</svg>
